<svg width="457" height="195" viewBox="0 0 457 195" fill="none" xmlns="http://www.w3.org/2000/svg">
<path d="M456.995 131.948L437.722 122.877H327.5V131.948H456.995Z" fill="#928F8A"/>
<g style="mix-blend-mode:multiply">
<path d="M410.455 129.817V126.049H444.469L437.722 122.877H327.5V126.049H351.691V129.817H410.455Z" fill="#1E3B7A"/>
</g>
<path d="M407.783 42.241H275.945V84.5094H441.288L407.783 42.241Z" fill="#40C3BB"/>
<path d="M186.651 62.3943L258.73 3.6255L330.809 62.3943H335.255L258.73 0L187.599 57.9942L186.651 62.3943Z" fill="#584C46"/>
<path d="M258.73 1.69586L187.558 59.7222L193.15 62.3943L258.73 8.92394L324.309 62.3943H333.156V62.376L258.73 1.69586Z" fill="white"/>
<path d="M354.73 86.6315H324.392V122.877H354.73V86.6315Z" fill="#ADADAD"/>
<path d="M437.708 86.6315H407.751V122.877H437.708V86.6315Z" fill="#ADADAD"/>
<path d="M441.288 84.5094H324.392V86.6315H441.288V84.5094Z" fill="white"/>
<path d="M407.788 81.2415H354.766V126.054H407.788V81.2415Z" fill="#CDCDCD"/>
<path d="M353.364 79.4905L381.272 56.9813L409.186 79.4905H353.364Z" fill="#CDCDCD"/>
<path d="M324.392 113.908V62.4631L258.73 8.92395L193.067 62.4631V113.908H324.392Z" fill="#CDCDCD"/>
<g style="mix-blend-mode:multiply">
<path d="M324.392 77.8039H193.067V78.6793H324.392V77.8039Z" fill="#CDCDCD"/>
<path d="M324.392 73.4267H193.067V74.3021H324.392V73.4267Z" fill="#CDCDCD"/>
<path d="M324.392 82.181H193.067V83.0565H324.392V82.181Z" fill="#CDCDCD"/>
<path d="M324.392 69.0449H193.067V69.9204H324.392V69.0449Z" fill="#CDCDCD"/>
<path d="M324.392 86.5629H193.067V87.4383H324.392V86.5629Z" fill="#CDCDCD"/>
<path d="M324.392 108.453H193.067V109.329H324.392V108.453Z" fill="#CDCDCD"/>
<path d="M324.392 90.94H193.067V91.8154H324.392V90.94Z" fill="#CDCDCD"/>
<path d="M324.392 64.6678H193.067V65.5432H324.392V64.6678Z" fill="#CDCDCD"/>
<path d="M324.392 104.076H193.067V104.952H324.392V104.076Z" fill="#CDCDCD"/>
<path d="M324.392 95.3172H193.067V96.1926H324.392V95.3172Z" fill="#CDCDCD"/>
<path d="M324.392 99.699H193.067V100.574H324.392V99.699Z" fill="#CDCDCD"/>
<path d="M201.102 55.9134L200.025 56.7888H317.434L316.357 55.9134H201.102Z" fill="#CDCDCD"/>
<path d="M233.324 29.6411L232.247 30.5165H285.213L284.136 29.6411H233.324Z" fill="#CDCDCD"/>
<path d="M244.063 20.8821L242.986 21.7576H274.469L273.397 20.8821H244.063Z" fill="#CDCDCD"/>
<path d="M238.691 25.2639L237.618 26.1348H279.841L278.768 25.2639H238.691Z" fill="#CDCDCD"/>
<path d="M249.43 16.505L248.357 17.3804H269.102L268.029 16.505H249.43Z" fill="#CDCDCD"/>
<path d="M254.802 12.1278L253.729 13.0032H263.73L262.658 12.1278H254.802Z" fill="#CDCDCD"/>
<path d="M217.213 42.7772L216.136 43.6527H301.324L300.246 42.7772H217.213Z" fill="#CDCDCD"/>
<path d="M206.469 51.5316L205.397 52.4071H312.063L310.99 51.5316H206.469Z" fill="#CDCDCD"/>
<path d="M211.841 47.1544L210.769 48.0299H306.691L305.618 47.1544H211.841Z" fill="#CDCDCD"/>
<path d="M227.952 34.0183L226.879 34.8937H290.58L289.507 34.0183H227.952Z" fill="#CDCDCD"/>
<path d="M222.58 38.4L221.508 39.2755H295.952L294.879 38.4H222.58Z" fill="#CDCDCD"/>
<path d="M195.73 60.2905L194.658 61.166H322.802L321.729 60.2905H195.73Z" fill="#CDCDCD"/>
</g>
<g style="mix-blend-mode:multiply">
<path d="M193.067 62.4631V67.8715H193.15L258.73 14.4012L324.309 67.8715H324.392V62.4631L258.73 8.92395L193.067 62.4631Z" fill="#CDCDCD"/>
</g>
<path d="M279.08 127.465H185.386V190.676H279.08V127.465Z" fill="#40C3BB"/>
<path d="M258.459 136.435H205.773V179.579H258.459V136.435Z" fill="#1E3B7A"/>
<path d="M323.049 127.465H279.085V190.676H323.049V127.465Z" fill="#CDCDCD"/>
<path d="M323.049 171.306H279.085V190.671H323.049V171.306Z" fill="#1E3B7A"/>
<path d="M314.194 140.679H287.944V190.671H314.194V140.679Z" fill="white"/>
<g style="mix-blend-mode:multiply">
<path d="M282.44 127.465H279.085V190.676H282.44V127.465Z" fill="#CDCDCD"/>
</g>
<path d="M238.691 136H205.337V179.959H258.459V136H238.691ZM257.584 142.921H252.084V136.875H257.584V142.921ZM229.313 172.163V165.92H234.502V172.177L229.313 172.163ZM234.502 173.038V179.084H229.313V173.038H234.502ZM234.502 143.796V150.053H229.313V143.796H234.502ZM229.336 142.921V136.875H234.502V142.921H229.336ZM240.859 165.031H238.714V158.949H240.859V165.031ZM222.983 150.923H225.133V157.01H222.983V150.923ZM240.859 157.01H238.714V150.923H240.859V157.01ZM237.838 157.01H235.377V150.923H237.838V157.01ZM234.502 157.01H229.313V150.923H234.502V157.01ZM228.461 157.01H225.976V150.923H228.438L228.461 157.01ZM218.51 157.01H212.565V150.923H218.487L218.51 157.01ZM218.51 158.949V165.031H212.565V158.949H218.51ZM222.979 158.949H225.129V165.031H222.979V158.949ZM225.999 158.949H228.461V165.031H225.976L225.999 158.949ZM229.336 158.949H234.502V165.031H229.313L229.336 158.949ZM235.377 158.949H237.838V165.031H235.377V158.949ZM245.332 158.949H251.25V165.031H245.309L245.332 158.949ZM245.332 157.01V150.923H251.25V157.01H245.332ZM245.332 150.053V143.796H251.25V150.053H245.332ZM245.332 142.921V136.875H251.25V142.921H245.332ZM240.859 150.053H238.714V143.796H240.859V150.053ZM237.838 150.053H235.377V143.796H237.838V150.053ZM228.461 150.053H225.976V143.796H228.438L228.461 150.053ZM225.129 150.053H222.979V143.796H225.129V150.053ZM218.51 142.921H212.565V136.875H218.487L218.51 142.921ZM218.51 143.796V150.053H212.565V143.796H218.51ZM211.717 150.053H206.217V143.796H211.717V150.053ZM211.717 150.923V157.01H206.217V150.923H211.717ZM211.717 158.949V165.031H206.217V158.949H211.717ZM211.717 165.907V172.163H206.217V165.92L211.717 165.907ZM212.588 165.907H218.51V172.163H212.565L212.588 165.907ZM218.51 173.038V179.084H212.565V173.038H218.51ZM222.956 165.92H225.106V172.177H222.956V165.92ZM225.976 165.92H228.438V172.177H225.976V165.92ZM235.354 165.92H237.815V172.177H235.354V165.92ZM238.691 165.92H240.836V172.177H238.691V165.92ZM245.309 173.052H251.227V179.098H245.309V173.052ZM245.309 172.177V165.92H251.227V172.177H245.309ZM252.102 165.92H257.602V172.177H252.102V165.92ZM252.102 165.045V158.949H257.602V165.031L252.102 165.045ZM252.102 157.024V150.923H257.602V157.01L252.102 157.024ZM252.102 150.066V143.796H257.602V150.053L252.102 150.066ZM240.836 136.889V142.934H238.691V136.875L240.836 136.889ZM237.815 142.934H235.354V136.875H237.815V142.934ZM228.438 136.889V142.934H225.976V136.875L228.438 136.889ZM225.106 142.934H222.956V136.875H225.106V142.934ZM211.694 136.889V142.934H206.194V136.875L211.694 136.889ZM206.194 173.052H211.694V179.098H206.194V173.052ZM222.938 179.098V173.038H225.087V179.084L222.938 179.098ZM225.958 173.052H228.419V179.098H225.976L225.958 173.052ZM235.336 179.098V173.038H237.797V179.084L235.336 179.098ZM238.673 173.052H240.818V179.098H238.673V173.052ZM252.084 179.098V173.038H257.584V179.084L252.084 179.098Z" fill="white"/>
<g style="mix-blend-mode:multiply">
<path d="M323.049 131.059H185.386V141.317C192.769 140.088 205.791 139.272 220.641 139.272C243.655 139.272 262.309 141.234 262.309 143.654H272.544C272.544 141.234 282.742 139.272 295.328 139.272C307.915 139.272 318.113 141.234 318.113 143.654H323.072L323.049 131.059Z" fill="#CDCDCD"/>
</g>
<path d="M311.018 143.356H291.112V187.857H311.018V143.356Z" fill="#28455B"/>
<path d="M307.277 146.587H294.852V152.211H307.277V146.587Z" fill="white"/>
<g style="mix-blend-mode:multiply" opacity="0.3">
<path d="M299.151 154.961H294.852V166.993H299.151V154.961Z" fill="#28455B"/>
<path d="M307.282 154.961H302.978V166.993H307.282V154.961Z" fill="#28455B"/>
<path d="M299.151 171.306H294.852V183.337H299.151V171.306Z" fill="#28455B"/>
<path d="M307.282 171.306H302.978V183.337H307.282V171.306Z" fill="#28455B"/>
</g>
<path d="M169.417 127.465V136.435H178.969C178.969 134.015 197.628 132.053 220.641 132.053C243.655 132.053 262.309 134.015 262.309 136.435H272.544C272.544 134.015 282.742 132.053 295.328 132.053C307.915 132.053 318.113 134.015 318.113 136.435H327.5V127.465H169.417Z" fill="white"/>
<path d="M180.293 136.435H169.421V138.397H180.293V136.435Z" fill="#E4E4E4"/>
<path d="M178.318 138.397H171.392V190.671H178.318V138.397Z" fill="white"/>
<path d="M270.88 138.397H263.955V190.671H270.88V138.397Z" fill="white"/>
<path d="M326.514 138.397H319.589V190.671H326.514V138.397Z" fill="white"/>
<path d="M272.851 136.435H261.979V138.397H272.851V136.435Z" fill="#E4E4E4"/>
<path d="M330.561 124.642H163V127.465H330.561V124.642Z" fill="white"/>
<g style="mix-blend-mode:multiply">
<path d="M327.5 127.346H169.421V129.817H327.5V127.346Z" fill="#CDCDCD"/>
</g>
<path d="M457 131.948H327.5V134.767H457V131.948Z" fill="white"/>
<path d="M454.007 137.205H326.51V190.676H454.007V137.205Z" fill="#CDCDCD"/>
<g style="mix-blend-mode:multiply" opacity="0.5">
<path d="M454.007 147.72H326.51V148.595H454.007V147.72Z" fill="#CDCDCD"/>
<path d="M454.007 143.627H326.51V144.502H454.007V143.627Z" fill="#CDCDCD"/>
<path d="M454.007 139.534H326.51V140.409H454.007V139.534Z" fill="#CDCDCD"/>
<path d="M454.007 151.817H326.51V152.693H454.007V151.817Z" fill="#CDCDCD"/>
<path d="M454.007 164.101H326.51V164.976H454.007V164.101Z" fill="#CDCDCD"/>
<path d="M454.007 155.91H326.51V156.786H454.007V155.91Z" fill="#CDCDCD"/>
<path d="M454.007 168.194H326.51V169.069H454.007V168.194Z" fill="#CDCDCD"/>
<path d="M454.007 160.008H326.51V160.883H454.007V160.008Z" fill="#CDCDCD"/>
</g>
<path d="M454.007 171.306H326.51V190.671H454.007V171.306Z" fill="#1E3B7A"/>
<path d="M455.969 134.776H327.5V137.205H455.969V134.776Z" fill="#E4E4E4"/>
<path d="M328.485 136.435H317.613V138.397H328.485V136.435Z" fill="#E4E4E4"/>
<path d="M337.698 141.848V190.671H342.799V146.588H437.722V190.671H442.819V141.848H337.698Z" fill="white"/>
<path d="M437.717 146.587H342.799V190.676H437.717V146.587Z" fill="white"/>
<path d="M387.254 153.321C387.254 151.661 378.247 150.314 367.137 150.314C356.027 150.314 347.016 151.661 347.016 153.321V155.612H387.254V153.321Z" fill="#212523"/>
<path d="M387.254 153.609H385.333V152.037C385.068 151.955 384.774 151.872 384.458 151.794V153.628H380.145V151.047L379.269 150.942V153.628H374.956V150.57L374.081 150.52V153.628H369.663V150.337C368.833 150.337 367.994 150.309 367.137 150.309C366.28 150.309 365.437 150.309 364.607 150.337V153.605H360.193V150.497L359.318 150.548V153.605H355.005V150.919L354.129 151.024V153.605H349.816V151.771C349.5 151.849 349.207 151.932 348.941 152.014V153.586H347.016V154.462H348.941V155.603H349.816V154.462H354.129V155.603H355.005V154.462H359.318V155.603H360.193V154.462H364.607V155.603H369.649V154.462H374.067V155.603H374.943V154.462H379.256V155.603H380.131V154.462H384.444V155.603H385.32V154.462H387.24L387.254 153.609Z" fill="white"/>
<path d="M433.501 153.321C433.501 151.661 424.494 150.314 413.384 150.314C402.274 150.314 393.263 151.661 393.263 153.321V155.612H433.501V153.321Z" fill="#212523"/>
<path d="M433.501 153.609H431.589V152.037C431.324 151.955 431.03 151.872 430.714 151.794V153.628H426.401V151.047L425.526 150.942V153.628H421.213V150.57L420.337 150.52V153.628H415.919V150.337C415.089 150.337 414.25 150.309 413.393 150.309C412.536 150.309 411.693 150.309 410.863 150.337V153.605H406.449V150.497L405.574 150.548V153.605H401.261V150.919L400.385 151.024V153.605H396.072V151.771C395.756 151.849 395.463 151.932 395.197 152.014V153.586H393.272V154.462H395.197V155.603H396.072V154.462H400.385V155.603H401.261V154.462H405.574V155.603H406.449V154.462H410.863V155.603H415.905V154.462H420.323V155.603H421.199V154.462H425.512V155.603H426.387V154.462H430.7V155.603H431.589V154.462H433.51L433.501 153.609Z" fill="white"/>
<g style="mix-blend-mode:multiply">
<path d="M437.722 158.555V157.524H342.799V158.555H348.299V169.033H342.799V170.046H348.299V180.528H342.799V181.555H348.299V190.671H349.294V181.564H360.152V190.671H361.147V181.564H372.005V190.671H373.004V181.564H383.857V190.671H384.838V181.564H395.692V190.671H396.691V181.564H407.545V190.671H408.544V181.564H419.397V190.671H420.392V181.564H431.25V190.671H432.245V181.564H437.745V180.537H432.245V170.046H437.745V169.023H432.245V158.555H437.722ZM372.976 158.555H383.835V169.033H372.976V158.555ZM372.005 169.033H361.124V158.555H372.005V169.033ZM384.838 158.555H395.697V169.033H384.838V158.555ZM396.696 158.555H407.549V169.033H396.687L396.696 158.555ZM408.548 158.555H419.397V169.033H408.539L408.548 158.555ZM349.28 158.555H360.138V169.033H349.271L349.28 158.555ZM349.28 180.555V170.046H360.138V180.528L349.28 180.555ZM361.133 180.555V170.046H372.005V180.528L361.133 180.555ZM372.99 180.555V170.046H383.848V180.528L372.99 180.555ZM384.843 180.555V170.046H395.701V180.528L384.843 180.555ZM396.696 180.555V170.046H407.549V180.528L396.696 180.555ZM408.548 180.555V170.046H419.397V180.528L408.548 180.555ZM431.259 180.555H420.392V170.046H431.25L431.259 180.555ZM431.259 169.051H420.392V158.555H431.25L431.259 169.051Z" fill="#CDCDCD"/>
</g>
<g style="mix-blend-mode:multiply">
<path d="M437.717 146.587H342.799V152.211H437.717V146.587Z" fill="#CDCDCD"/>
</g>
<g style="mix-blend-mode:multiply">
<path d="M454.007 137.205H326.51V144.704H454.007V137.205Z" fill="#CDCDCD"/>
</g>
<g style="mix-blend-mode:multiply">
<path d="M326.514 142.458L319.589 148.036V138.397H326.514V142.458Z" fill="#CDCDCD"/>
</g>
<g style="mix-blend-mode:multiply">
<path d="M270.88 142.458L263.955 148.036V138.397H270.88V142.458Z" fill="#CDCDCD"/>
</g>
<g style="mix-blend-mode:multiply">
<path d="M178.318 142.458L171.392 148.036V138.397H178.318V142.458Z" fill="#CDCDCD"/>
</g>
<path d="M163 124.642L184.964 113.908H277.343V112.368H327.5L330.561 124.642H163Z" fill="#928F8A"/>
<path d="M231.156 16.7983L184.964 60.1301V113.908H277.343V60.1301L231.156 16.7983Z" fill="#1E3B7A"/>
<g style="mix-blend-mode:multiply">
<path d="M231.156 16.7983L184.964 60.1301V66.4186L231.156 23.0868L277.343 66.4186V60.1301L231.156 16.7983Z" fill="#CDCDCD"/>
</g>
<path d="M219.11 69.1045H199.599V105.337H219.11V69.1045Z" fill="#7892A7"/>
<path d="M199.599 69.1045H189.841V105.337H199.599V69.1045Z" fill="#28455B"/>
<g style="mix-blend-mode:multiply" opacity="0.4">
<path d="M197.669 71.3183H191.77V84.5782H197.669V71.3183Z" stroke="#28455B" stroke-width="2.09" stroke-miterlimit="10"/>
</g>
<g style="mix-blend-mode:multiply" opacity="0.4">
<path d="M197.669 89.8675H191.77V103.127H197.669V89.8675Z" stroke="#28455B" stroke-width="2.09" stroke-miterlimit="10"/>
</g>
<path d="M228.869 69.1045H219.11V105.337H228.869V69.1045Z" fill="#28455B"/>
<g style="mix-blend-mode:multiply" opacity="0.4">
<path d="M226.939 71.3183H221.04V84.5782H226.939V71.3183Z" stroke="#28455B" stroke-width="2.09" stroke-miterlimit="10"/>
</g>
<g style="mix-blend-mode:multiply" opacity="0.4">
<path d="M226.939 89.8675H221.04V103.127H226.939V89.8675Z" stroke="#28455B" stroke-width="2.09" stroke-miterlimit="10"/>
</g>
<path d="M217.671 70.5437V103.897H201.043V70.5437H217.676M219.115 69.1045H199.599V105.314H219.11V69.1045H219.115Z" fill="white"/>
<path d="M212.739 69.1045V105.337" stroke="white" stroke-width="2.09" stroke-miterlimit="10"/>
<path d="M205.97 69.1045V105.337" stroke="white" stroke-width="2.09" stroke-miterlimit="10"/>
<path d="M199.599 87.2228H219.11" stroke="white" stroke-width="3.14" stroke-miterlimit="10"/>
<path d="M199.599 95.7985H219.11" stroke="white" stroke-width="2.09" stroke-miterlimit="10"/>
<path d="M199.599 78.6472H219.11" stroke="white" stroke-width="2.09" stroke-miterlimit="10"/>
<path d="M262.713 69.1045H243.201V105.337H262.713V69.1045Z" fill="#7892A7"/>
<path d="M243.201 69.1045H233.443V105.337H243.201V69.1045Z" fill="#28455B"/>
<g style="mix-blend-mode:multiply" opacity="0.4">
<path d="M241.271 71.3183H235.372V84.5782H241.271V71.3183Z" stroke="#28455B" stroke-width="2.09" stroke-miterlimit="10"/>
</g>
<g style="mix-blend-mode:multiply" opacity="0.4">
<path d="M241.271 89.8675H235.372V103.127H241.271V89.8675Z" stroke="#28455B" stroke-width="2.09" stroke-miterlimit="10"/>
</g>
<path d="M272.471 69.1045H262.713V105.337H272.471V69.1045Z" fill="#28455B"/>
<g style="mix-blend-mode:multiply" opacity="0.4">
<path d="M270.541 71.3183H264.642V84.5782H270.541V71.3183Z" stroke="#28455B" stroke-width="2.09" stroke-miterlimit="10"/>
</g>
<g style="mix-blend-mode:multiply" opacity="0.4">
<path d="M270.541 89.8675H264.642V103.127H270.541V89.8675Z" stroke="#28455B" stroke-width="2.09" stroke-miterlimit="10"/>
</g>
<path d="M261.273 70.5437V103.897H244.64V70.5437H261.273ZM262.713 69.1045H243.21V105.314H262.722V69.1045H262.713Z" fill="white"/>
<path d="M256.342 69.1045V105.337" stroke="white" stroke-width="2.09" stroke-miterlimit="10"/>
<path d="M249.572 69.1045V105.337" stroke="white" stroke-width="2.09" stroke-miterlimit="10"/>
<path d="M243.201 87.2228H262.713" stroke="white" stroke-width="3.14" stroke-miterlimit="10"/>
<path d="M243.201 95.7985H262.713" stroke="white" stroke-width="2.09" stroke-miterlimit="10"/>
<path d="M243.201 78.6472H262.713" stroke="white" stroke-width="2.09" stroke-miterlimit="10"/>
<path d="M309.175 74.9026H291.359V107.981H309.175V74.9026Z" fill="#7892A7"/>
<path d="M291.359 74.9026H282.454V107.981H291.359V74.9026Z" fill="#28455B"/>
<g style="mix-blend-mode:multiply" opacity="0.4">
<path d="M289.998 89.4274H283.815V76.5434H289.998V89.4274ZM284.612 88.6253H289.196V77.3226H284.612V88.6253Z" fill="#28455B"/>
</g>
<g style="mix-blend-mode:multiply" opacity="0.4">
<path d="M289.998 106.359H283.815V93.4563H289.998V106.359ZM284.612 105.561H289.196V94.2538H284.612V105.561Z" fill="#28455B"/>
</g>
<path d="M318.09 74.9026H309.18V107.981H318.09V74.9026Z" fill="#28455B"/>
<g style="mix-blend-mode:multiply" opacity="0.4">
<path d="M316.724 89.4274H310.536V76.5434H316.724V89.4274ZM311.338 88.6253H315.922V77.3226H311.338V88.6253Z" fill="#28455B"/>
</g>
<g style="mix-blend-mode:multiply" opacity="0.4">
<path d="M316.724 106.359H310.536V93.4563H316.724V106.359ZM311.338 105.561H315.922V94.2538H311.338V105.561Z" fill="#28455B"/>
</g>
<path d="M307.979 76.0851V106.794H292.56V76.0851H307.979ZM309.18 74.8888H291.359V107.967H309.18V74.9025V74.8888Z" fill="white"/>
<path d="M303.762 74.9026H302.96V107.981H303.762V74.9026Z" fill="white"/>
<path d="M297.579 74.9026H296.781V107.981H297.579V74.9026Z" fill="white"/>
<path d="M309.175 90.8437H291.359V92.04H309.175V90.8437Z" fill="white"/>
<path d="M309.175 98.8693H291.359V99.6714H309.175V98.8693Z" fill="white"/>
<path d="M309.175 83.2123H291.359V84.0098H309.175V83.2123Z" fill="white"/>
<path d="M309.175 73.39H291.359V74.898H309.175V73.39Z" fill="white"/>
<g style="mix-blend-mode:multiply">
<path d="M309.175 73.39H291.359V74.1417H309.175V73.39Z" fill="#CDCDCD"/>
</g>
<path d="M310.248 70.4199H290.296V73.3946H310.248V70.4199Z" fill="white"/>
<path d="M311.022 68.5316H289.517V70.4199H311.022V68.5316Z" fill="white"/>
<path d="M311.875 67.9036H288.669V68.5316H311.875V67.9036Z" fill="white"/>
<path d="M311.022 68.5316H289.517V69.2878H311.022V68.5316Z" fill="#CDCDCD"/>
<g style="mix-blend-mode:multiply">
<path d="M310.248 70.4199H290.296V71.905H310.248V70.4199Z" fill="#CDCDCD"/>
</g>
<g style="mix-blend-mode:multiply">
<path d="M309.175 74.9026H291.359V75.6589H309.175V74.9026Z" fill="#CDCDCD"/>
</g>
<path d="M348.996 93.6534H331.18V119.018H348.996V93.6534Z" fill="#7892A7"/>
<path d="M347.8 94.5746V118.101H332.376V94.5746H347.8ZM348.996 93.658H331.18V119.027H348.996V93.6534V93.658Z" fill="white"/>
<path d="M343.578 93.6534H342.781V119.018H343.578V93.6534Z" fill="white"/>
<path d="M337.395 93.6534H336.598V119.018H337.395V93.6534Z" fill="white"/>
<path d="M348.996 105.877H331.18V106.799H348.996V105.877Z" fill="white"/>
<path d="M348.996 112.037H331.18V112.647H348.996V112.037Z" fill="white"/>
<path d="M348.996 100.029H331.18V100.643H348.996V100.029Z" fill="white"/>
<path d="M348.996 92.4984H331.18V93.6534H348.996V92.4984Z" fill="white"/>
<g style="mix-blend-mode:multiply">
<path d="M348.996 92.4984H331.18V93.0759H348.996V92.4984Z" fill="#CDCDCD"/>
</g>
<path d="M350.064 91.4258H330.112V92.4984H350.064V91.4258Z" fill="white"/>
<path d="M350.838 90.7474H329.333V91.4258H350.838V90.7474Z" fill="white"/>
<path d="M351.691 90.5183H328.485V90.7429H351.691V90.5183Z" fill="white"/>
<path d="M350.838 90.7474H329.333V91.0224H350.838V90.7474Z" fill="#CDCDCD"/>
<g style="mix-blend-mode:multiply">
<path d="M350.064 91.4258H330.112V91.9621H350.064V91.4258Z" fill="#CDCDCD"/>
</g>
<g style="mix-blend-mode:multiply">
<path d="M348.996 93.6534H331.18V94.2309H348.996V93.6534Z" fill="#CDCDCD"/>
</g>
<path d="M431.635 93.6534H413.819V119.018H431.635V93.6534Z" fill="#7892A7"/>
<path d="M430.444 94.5746V118.101H415.02V94.5746H430.444ZM431.64 93.658H413.819V119.027H431.64V93.6534V93.658Z" fill="white"/>
<path d="M426.222 93.6534H425.42V119.018H426.222V93.6534Z" fill="white"/>
<path d="M420.039 93.6534H419.242V119.018H420.039V93.6534Z" fill="white"/>
<path d="M431.635 105.877H413.819V106.799H431.635V105.877Z" fill="white"/>
<path d="M431.635 112.037H413.819V112.647H431.635V112.037Z" fill="white"/>
<path d="M431.635 100.029H413.819V100.643H431.635V100.029Z" fill="white"/>
<path d="M431.635 92.4984H413.819V93.6534H431.635V92.4984Z" fill="white"/>
<g style="mix-blend-mode:multiply">
<path d="M431.635 92.4984H413.819V93.0759H431.635V92.4984Z" fill="#CDCDCD"/>
</g>
<path d="M432.708 91.4258H412.756V92.4984H432.708V91.4258Z" fill="white"/>
<path d="M433.482 90.7474H411.977V91.4258H433.482V90.7474Z" fill="white"/>
<path d="M434.335 90.5183H411.129V90.7429H434.335V90.5183Z" fill="white"/>
<path d="M433.482 90.7474H411.977V91.0224H433.482V90.7474Z" fill="#CDCDCD"/>
<g style="mix-blend-mode:multiply">
<path d="M432.708 91.4258H412.756V91.9621H432.708V91.4258Z" fill="#CDCDCD"/>
</g>
<g style="mix-blend-mode:multiply">
<path d="M431.635 93.6534H413.819V94.2309H431.635V93.6534Z" fill="#CDCDCD"/>
</g>
<path d="M390.183 87.649H372.367V117.423H390.183V87.649Z" fill="#7892A7"/>
<path d="M388.986 88.7307V116.341H373.563V88.7307H388.986ZM390.183 87.649H372.367V117.441H390.183V87.649Z" fill="white"/>
<path d="M384.765 87.649H383.968V117.423H384.765V87.649Z" fill="white"/>
<path d="M378.582 87.649H377.784V117.423H378.582V87.649Z" fill="white"/>
<path d="M390.183 102H372.367V103.077H390.183V102Z" fill="white"/>
<path d="M390.183 109.223H372.367V109.943H390.183V109.223Z" fill="white"/>
<path d="M390.183 95.1292H372.367V95.8488H390.183V95.1292Z" fill="white"/>
<path d="M370.368 87.649H357.512V117.423H370.368V87.649Z" fill="#7892A7"/>
<path d="M369.502 88.7307V116.341H358.374V88.7307H369.502ZM370.368 87.649H357.512V117.441H370.368V87.649Z" fill="white"/>
<path d="M366.459 87.649H365.881V117.423H366.459V87.649Z" fill="white"/>
<path d="M361.999 87.649H361.422V117.423H361.999V87.649Z" fill="white"/>
<path d="M370.368 102H357.512V103.077H370.368V102Z" fill="white"/>
<path d="M370.368 109.223H357.512V109.943H370.368V109.223Z" fill="white"/>
<path d="M370.368 95.1292H357.512V95.8488H370.368V95.1292Z" fill="white"/>
<path d="M405.038 87.649H392.181V117.423H405.038V87.649Z" fill="#7892A7"/>
<path d="M404.171 88.7307V116.341H393.047V88.7307H404.171ZM405.038 87.649H392.172V117.441H405.028V87.649H405.038Z" fill="white"/>
<path d="M401.128 87.649H400.55V117.423H401.128V87.649Z" fill="white"/>
<path d="M396.673 87.649H396.095V117.423H396.673V87.649Z" fill="white"/>
<path d="M405.038 102H392.181V103.077H405.038V102Z" fill="white"/>
<path d="M405.038 109.223H392.181V109.943H405.038V109.223Z" fill="white"/>
<path d="M405.038 95.1292H392.181V95.8488H405.038V95.1292Z" fill="white"/>
<path d="M349.803 81.2415L381.272 55.8584L412.752 81.2415H415.538L381.272 53.6079L347.011 81.2415H349.803Z" fill="#584C46"/>
<path d="M381.272 59.2272L404.226 77.7397H358.323L381.272 59.2272ZM381.272 54.7308L348.405 81.2414H414.145L381.272 54.7308Z" fill="white"/>
<path d="M178.721 60.1302L231.156 10.9453L283.586 60.1302H287.422L231.156 7.34271L174.885 60.1302H178.721Z" fill="#584C46"/>
<path d="M231.156 9.14392L176.805 60.1301H184.964L231.156 16.7983L277.343 60.1301H285.506L231.156 9.14392Z" fill="white"/>
<g style="mix-blend-mode:multiply">
<path d="M327.5 112.368H277.343V113.908H184.964L182.631 115.049H282.435V113.908H327.885L327.5 112.368Z" fill="#999999"/>
</g>
<path d="M314.171 190.666H163V192.582H314.171V190.666Z" fill="#999999"/>
<path d="M454.007 190.666H337.725V192.582H454.007V190.666Z" fill="#EBEAE9"/>
<path d="M337.721 190.666H314.171V192.582H337.721V190.666Z" fill="#D2D2D2"/>
<path d="M109.765 112.729C109.765 112.729 112.029 114.133 112.228 118.044C112.427 121.956 114.989 131.79 113.884 133.127C113.606 133.496 113.235 133.785 112.81 133.964C112.384 134.144 111.919 134.207 111.46 134.149L99.5943 131.005L102.355 116.298L109.765 112.729Z" fill="#263238"/>
<path d="M134.303 145.409C134.09 145.817 133.905 146.24 133.751 146.674C133.641 147.011 133.713 149.641 134.033 149.481C134.353 149.32 134.408 149.204 134.464 148.63C134.519 148.055 134.519 147.525 134.668 147.663C134.929 148.397 135.026 149.18 134.949 149.956C134.8 150.431 134.502 151.282 134.8 151.497C135.099 151.713 135.303 151.359 135.303 151.359C135.303 151.359 135.341 151.834 135.606 151.657C136.206 151.097 136.678 150.415 136.992 149.657C137.103 149.105 136.551 146.657 136.49 146.055C136.49 145.873 136.225 144.713 136.225 144.713L134.105 144.834L134.303 145.409Z" fill="#FDAD6A"/>
<path d="M128.754 117.188C129.394 117.299 129.995 117.569 130.502 117.973C131.01 118.378 131.408 118.904 131.659 119.503C132.487 121.558 133.486 132.492 134.099 133.961C134.971 136 136.214 144.713 136.214 144.713L134.303 145.409C134.303 145.409 130.703 137.508 130.438 134.641C130.283 132.989 130.023 131.348 129.66 129.729L128.754 117.188Z" fill="#407BFF"/>
<path opacity="0.4" d="M128.754 117.188C129.394 117.299 129.995 117.569 130.502 117.973C131.01 118.378 131.408 118.904 131.659 119.503C132.487 121.558 133.486 132.492 134.099 133.961C134.971 136 136.214 144.713 136.214 144.713L134.303 145.409C134.303 145.409 130.703 137.508 130.438 134.641C130.283 132.989 130.023 131.348 129.66 129.729L128.754 117.188Z" fill="black"/>
<path d="M115.861 117.575C115.861 117.575 112.968 117.829 112.046 121.84C111.377 124.762 109.616 130.89 109.616 130.89L104.293 136.453L105.155 139.326C105.155 139.326 112.222 135.459 112.99 134.464C113.757 133.47 115.983 128.011 115.983 128.011L115.861 117.575Z" fill="#407BFF"/>
<path opacity="0.4" d="M115.861 117.575C115.861 117.575 112.968 117.829 112.046 121.84C111.377 124.762 109.616 130.89 109.616 130.89L104.293 136.453L105.155 139.326C105.155 139.326 112.222 135.459 112.99 134.464C113.757 133.47 115.983 128.011 115.983 128.011L115.861 117.575Z" fill="black"/>
<path d="M130.753 185.204L130.052 191.718L132.194 192.044L134.452 185.917L130.753 185.204Z" fill="#263238"/>
<path d="M133.9 190.448C133.933 190.05 133.9 189.718 133.481 189.696L132.873 189.657C132.665 189.695 132.473 189.793 132.321 189.939C130.941 190.906 130.372 189.657 129.831 189.657C129.141 189.657 129.588 191.867 129.555 191.983L128.798 194.547C128.732 194.762 128.865 195.221 129.097 195.282C129.137 195.287 129.178 195.287 129.218 195.282H137.18C138.45 195.282 138.467 193.724 137.942 193.624C136.455 193.377 135.057 192.749 133.884 191.801C133.858 191.35 133.864 190.898 133.9 190.448Z" fill="#407BFF"/>
<path opacity="0.4" d="M137.18 195.298H129.196C129.156 195.304 129.115 195.304 129.074 195.298C128.92 195.26 128.809 195.033 128.771 194.823V194.63H138.218C138.144 194.841 138.002 195.021 137.814 195.142C137.626 195.263 137.403 195.318 137.18 195.298Z" fill="white"/>
<path d="M135.148 192.746C134.954 192.923 134.795 193.134 134.679 193.37C134.673 193.383 134.664 193.394 134.653 193.403C134.642 193.412 134.629 193.418 134.616 193.422C134.602 193.425 134.588 193.426 134.574 193.424C134.56 193.422 134.547 193.417 134.535 193.409C134.512 193.394 134.495 193.371 134.488 193.344C134.481 193.318 134.484 193.29 134.497 193.265C134.615 193.017 134.776 192.791 134.972 192.597C134.991 192.577 135.018 192.566 135.046 192.566C135.074 192.566 135.101 192.577 135.121 192.597C135.14 192.616 135.151 192.643 135.151 192.671C135.151 192.699 135.14 192.726 135.121 192.746H135.148Z" fill="#263238"/>
<path d="M134.419 192.298L134.287 192.436L134.226 192.503V192.541C134.15 192.641 134.081 192.746 134.022 192.856C134.015 192.868 134.006 192.879 133.995 192.887C133.984 192.896 133.971 192.902 133.958 192.905C133.945 192.909 133.931 192.91 133.917 192.908C133.903 192.906 133.89 192.902 133.878 192.895C133.866 192.888 133.856 192.879 133.847 192.868C133.839 192.857 133.833 192.845 133.829 192.831C133.826 192.818 133.825 192.804 133.826 192.79C133.828 192.777 133.833 192.763 133.84 192.751C133.952 192.535 134.095 192.335 134.265 192.16C134.285 192.14 134.313 192.129 134.342 192.129C134.371 192.129 134.399 192.14 134.419 192.16C134.429 192.17 134.437 192.182 134.442 192.194C134.448 192.207 134.45 192.221 134.45 192.235C134.45 192.249 134.448 192.262 134.442 192.275C134.437 192.288 134.429 192.3 134.419 192.309V192.298Z" fill="#263238"/>
<path d="M133.867 191.928L133.806 191.967H133.773H133.746L133.69 192.017L133.646 192.072V192.105C133.617 192.144 133.593 192.187 133.575 192.232C133.572 192.266 133.557 192.299 133.531 192.321C133.505 192.344 133.471 192.356 133.436 192.354C133.402 192.351 133.37 192.336 133.347 192.31C133.324 192.284 133.313 192.25 133.315 192.215C133.411 192.016 133.567 191.851 133.762 191.746C133.774 191.739 133.787 191.734 133.801 191.733C133.815 191.731 133.829 191.732 133.842 191.735C133.855 191.739 133.868 191.745 133.879 191.754C133.89 191.762 133.899 191.773 133.906 191.785C133.914 191.796 133.919 191.81 133.921 191.823C133.923 191.837 133.922 191.851 133.919 191.865C133.915 191.879 133.909 191.891 133.9 191.902C133.891 191.913 133.88 191.922 133.867 191.928Z" fill="#263238"/>
<path d="M133.818 191.127H133.657H133.519C133.416 191.15 133.314 191.182 133.216 191.221C133.189 191.228 133.161 191.224 133.138 191.211C133.114 191.198 133.096 191.175 133.089 191.149C133.084 191.136 133.083 191.122 133.084 191.108C133.086 191.094 133.09 191.08 133.096 191.068C133.103 191.055 133.112 191.045 133.123 191.036C133.134 191.027 133.147 191.02 133.16 191.017C133.37 190.934 133.592 190.889 133.818 190.884C133.845 190.884 133.872 190.895 133.892 190.915C133.911 190.935 133.922 190.961 133.922 190.989C133.922 191.017 133.911 191.044 133.892 191.063C133.872 191.083 133.845 191.094 133.818 191.094V191.127Z" fill="#263238"/>
<g opacity="0.3">
<path d="M131.565 191.221C131.568 191.336 131.542 191.449 131.49 191.552C131.438 191.654 131.361 191.742 131.266 191.807C131.134 191.86 130.99 191.881 130.847 191.867L129.577 191.829C129.511 191.221 129.328 189.751 129.858 189.751C130.273 189.751 130.703 190.597 131.57 190.348C131.559 190.657 131.57 191.055 131.565 191.221Z" fill="black"/>
</g>
<path d="M116.634 140.729L126.054 141.017L132.178 141.182C132.178 141.182 136.992 161.188 137.379 164.939C137.765 168.691 134.833 190.785 134.833 190.785L128.76 190.635C128.76 190.635 130.383 168.464 129.974 166.425C129.621 164.646 125.684 153.254 124.685 150.354L124.37 152.133C124.116 154.807 123.304 163.326 122.945 166.497C122.945 166.497 122.178 184.602 121.587 190.21H116.916C115.988 182.398 115.591 156.177 115.591 156.177C115.243 150.503 116.634 140.729 116.634 140.729Z" fill="#263238"/>
<g opacity="0.5">
<path d="M129.339 142.243C129.619 143.19 130.129 144.053 130.822 144.756C131.516 145.459 132.372 145.979 133.315 146.271C133.42 146.304 133.376 146.464 133.276 146.436C132.31 146.132 131.433 145.594 130.723 144.871C130.014 144.147 129.493 143.26 129.207 142.287C129.201 142.276 129.197 142.264 129.196 142.252C129.195 142.239 129.197 142.226 129.202 142.215C129.207 142.203 129.214 142.193 129.223 142.184C129.233 142.176 129.244 142.17 129.256 142.166C129.268 142.163 129.281 142.162 129.293 142.164C129.306 142.167 129.317 142.172 129.327 142.179C129.338 142.186 129.346 142.196 129.352 142.207C129.358 142.218 129.361 142.23 129.361 142.243H129.339Z" fill="black"/>
<path d="M124.248 142.238L124.58 147.293C124.577 147.305 124.576 147.318 124.579 147.331C124.581 147.343 124.586 147.355 124.594 147.365C124.602 147.375 124.612 147.383 124.623 147.389C124.635 147.394 124.647 147.397 124.66 147.397C124.673 147.397 124.685 147.394 124.696 147.389C124.708 147.383 124.718 147.375 124.725 147.365C124.733 147.355 124.739 147.343 124.741 147.331C124.744 147.318 124.743 147.305 124.74 147.293L124.574 144.696C124.972 145.017 125.447 144.63 125.579 144.199C125.759 143.472 125.745 142.71 125.541 141.989C125.541 141.884 125.358 141.928 125.386 142.033C125.504 142.521 125.549 143.024 125.518 143.525C125.517 143.794 125.464 144.06 125.364 144.31C125.237 144.569 124.911 144.79 124.646 144.553C124.634 144.544 124.619 144.539 124.605 144.539C124.59 144.539 124.575 144.544 124.563 144.553L124.414 142.26C124.409 142.133 124.243 142.133 124.248 142.238Z" fill="black"/>
<path d="M119.456 142.525C119.478 143.587 119.098 144.619 118.391 145.413C117.684 146.206 116.703 146.702 115.646 146.801C115.541 146.801 115.541 146.646 115.646 146.635C116.657 146.535 117.594 146.056 118.267 145.293C118.94 144.531 119.299 143.542 119.273 142.525C119.273 142.503 119.282 142.482 119.298 142.466C119.313 142.451 119.334 142.442 119.356 142.442C119.378 142.442 119.399 142.451 119.415 142.466C119.43 142.482 119.439 142.503 119.439 142.525H119.456Z" fill="black"/>
<path d="M118.169 167.298C117.472 167.563 116.702 167.563 116.005 167.298C115.9 167.265 115.944 167.094 116.049 167.133C116.716 167.384 117.452 167.384 118.119 167.133C118.224 167.094 118.268 167.26 118.169 167.298Z" fill="black"/>
</g>
<path d="M131.874 138.475L130.4 122.26L128.743 117.188C127.307 117.099 121.565 116.409 115.706 117.58L115.756 140.033C115.756 140.033 114.851 141.658 116.706 141.558C121.772 142.027 126.876 141.901 131.913 141.182C132.763 140.906 132.763 139.823 131.874 138.475Z" fill="#407BFF"/>
<path opacity="0.4" d="M131.874 138.475L130.4 122.26L128.743 117.188C127.307 117.099 121.565 116.409 115.706 117.58L115.756 140.033C115.756 140.033 114.851 141.658 116.706 141.558C121.772 142.027 126.876 141.901 131.913 141.182C132.763 140.906 132.763 139.823 131.874 138.475Z" fill="black"/>
<path opacity="0.2" d="M116.005 131.022V123.21C116.005 123.21 115.121 127.199 115.381 128.37C115.64 129.541 116.005 131.022 116.005 131.022Z" fill="black"/>
<path d="M121.189 185.519L120.278 192.21L118.103 192.315L117.396 185.867L121.189 185.519Z" fill="#263238"/>
<path d="M116.248 195.315H121.118C121.198 195.071 121.198 194.808 121.118 194.564C121.118 194.481 121.074 194.387 121.04 194.282C120.996 194.133 120.947 193.95 120.891 193.729C120.708 192.842 120.582 191.943 120.516 191.039C120.516 191.039 119.594 190.11 118.644 190.547C117.81 190.923 117.943 191.409 117.943 191.409C117.943 191.409 117.943 192.652 117.297 193.215C116.902 193.491 116.573 193.849 116.33 194.265C116.296 194.351 116.269 194.44 116.248 194.53C116.248 194.53 116.248 194.53 116.248 194.564C116.199 194.812 116.199 195.067 116.248 195.315Z" fill="#407BFF"/>
<g opacity="0.4">
<path d="M121.107 194.563C121.187 194.807 121.187 195.071 121.107 195.315H116.237C116.188 195.067 116.188 194.812 116.237 194.563H121.107Z" fill="white"/>
</g>
<path d="M118.186 192.287C118.313 192.185 118.475 192.134 118.638 192.144C118.802 192.154 118.955 192.225 119.069 192.343C119.135 192.409 119.235 192.304 119.169 192.238C119.026 192.089 118.832 192.001 118.626 191.991C118.421 191.982 118.219 192.053 118.064 192.188C117.992 192.243 118.064 192.343 118.164 192.287H118.186Z" fill="#263238"/>
<path d="M118.053 192.74C118.181 192.64 118.341 192.591 118.503 192.601C118.664 192.611 118.817 192.68 118.931 192.796C118.937 192.804 118.945 192.812 118.954 192.818C118.963 192.823 118.973 192.827 118.984 192.828C118.994 192.829 119.005 192.827 119.015 192.824C119.025 192.82 119.034 192.814 119.042 192.807C119.049 192.799 119.055 192.79 119.059 192.78C119.062 192.77 119.064 192.759 119.063 192.749C119.061 192.738 119.058 192.728 119.052 192.719C119.047 192.71 119.039 192.702 119.03 192.696C118.89 192.545 118.696 192.455 118.489 192.445C118.283 192.435 118.081 192.505 117.926 192.641C117.854 192.696 117.926 192.801 118.031 192.74H118.053Z" fill="#263238"/>
<path d="M117.91 193.16C118.038 193.059 118.199 193.008 118.362 193.018C118.525 193.029 118.679 193.099 118.793 193.215C118.859 193.282 118.959 193.177 118.892 193.116C118.752 192.965 118.558 192.875 118.351 192.865C118.145 192.854 117.943 192.925 117.788 193.061C117.716 193.116 117.788 193.215 117.888 193.16H117.91Z" fill="#263238"/>
<path d="M112.532 193.575L115.094 193.823L116.982 187.342L113.089 186.923L112.532 193.575Z" fill="#FDBBB5"/>
<path d="M115.464 192.713H114.541C114.44 192.714 114.34 192.74 114.25 192.787C114.16 192.834 114.082 192.901 114.022 192.983C113.47 193.702 113.1 193.431 112.526 192.757C112.162 192.713 112.068 193.133 112.035 193.243L111.355 195.729C111.328 195.828 111.34 195.934 111.39 196.024C111.439 196.114 111.522 196.181 111.62 196.21H111.736H118.959C120.113 196.21 120.35 195.05 119.875 194.939C117.744 194.47 116.237 193.834 115.574 193.221C115.469 193.116 115.596 193.033 115.464 192.713Z" fill="#263238"/>
<path d="M116.822 193.541C116.533 193.535 116.247 193.498 115.966 193.431C115.959 193.421 115.955 193.41 115.955 193.398C115.955 193.386 115.959 193.374 115.966 193.365C115.964 193.356 115.964 193.346 115.966 193.337C116.099 193.276 117.241 192.74 117.523 192.945C117.55 192.961 117.571 192.985 117.585 193.014C117.599 193.042 117.604 193.074 117.6 193.105C117.599 193.163 117.585 193.22 117.558 193.272C117.531 193.324 117.493 193.369 117.446 193.403C117.258 193.515 117.039 193.563 116.822 193.541ZM116.148 193.365C116.55 193.477 116.977 193.46 117.368 193.315C117.402 193.289 117.429 193.256 117.449 193.219C117.469 193.182 117.481 193.141 117.484 193.099C117.487 193.085 117.486 193.071 117.48 193.058C117.474 193.045 117.464 193.034 117.451 193.028C117.302 192.917 116.623 193.155 116.148 193.365Z" fill="#407BFF"/>
<path d="M115.983 193.436H115.944C115.939 193.428 115.936 193.418 115.936 193.409C115.936 193.399 115.939 193.39 115.944 193.381C115.944 193.331 116.214 192.21 116.838 192.276C116.999 192.276 117.043 192.37 117.048 192.431C117.087 192.729 116.369 193.293 116.027 193.436H115.983ZM116.75 192.37C116.352 192.37 116.126 193.028 116.049 193.287C116.419 193.094 116.943 192.624 116.91 192.442C116.91 192.442 116.91 192.387 116.794 192.376L116.75 192.37Z" fill="#407BFF"/>
<path d="M116.099 193.403C115.941 193.425 115.789 193.481 115.655 193.567C115.52 193.652 115.406 193.766 115.32 193.9" stroke="#407BFF" stroke-width="0.26" stroke-linecap="round" stroke-linejoin="round"/>
<path d="M116.662 193.818C116.505 193.84 116.354 193.896 116.221 193.982C116.088 194.068 115.974 194.181 115.889 194.315" stroke="#407BFF" stroke-width="0.26" stroke-linecap="round" stroke-linejoin="round"/>
<path d="M117.368 194.188C117.212 194.21 117.061 194.266 116.928 194.352C116.794 194.438 116.681 194.551 116.595 194.685" stroke="#407BFF" stroke-width="0.26" stroke-linecap="round" stroke-linejoin="round"/>
<path opacity="0.3" d="M115.983 190.768L115.751 191.564L112.741 191.105L112.797 190.453L115.983 190.768Z" fill="black"/>
<path d="M97.6452 193.779L100.202 194.033L102.09 187.552L98.2028 187.127L97.6452 193.779Z" fill="#FDBBB5"/>
<path d="M100.572 192.901H99.633C99.5259 192.898 99.4198 192.921 99.3236 192.968C99.2274 193.015 99.1441 193.085 99.0808 193.171C98.5563 193.895 98.1587 193.619 97.59 192.945C97.2255 192.901 97.1261 193.321 97.093 193.431L96.4138 195.917C96.3995 195.966 96.395 196.018 96.4006 196.068C96.4062 196.119 96.4217 196.168 96.4464 196.213C96.471 196.257 96.5042 196.297 96.5441 196.329C96.584 196.36 96.6298 196.384 96.6789 196.398C96.7174 196.403 96.7564 196.403 96.7948 196.398H104.083C105.237 196.398 105.475 195.238 105 195.133C102.869 194.658 101.361 194.028 100.699 193.409C100.577 193.321 100.704 193.265 100.572 192.901Z" fill="#263238"/>
<path d="M101.936 193.746C101.647 193.74 101.36 193.703 101.08 193.635C101.073 193.634 101.067 193.632 101.061 193.628C101.056 193.624 101.052 193.619 101.048 193.613C101.045 193.607 101.043 193.601 101.043 193.594C101.043 193.587 101.044 193.581 101.047 193.575C101.049 193.567 101.053 193.56 101.059 193.554C101.065 193.548 101.072 193.544 101.08 193.541C101.207 193.481 102.35 192.945 102.631 193.149C102.658 193.166 102.679 193.19 102.692 193.218C102.706 193.247 102.712 193.278 102.709 193.309C102.708 193.368 102.693 193.425 102.666 193.477C102.64 193.529 102.601 193.573 102.554 193.608C102.368 193.718 102.151 193.767 101.936 193.746ZM101.256 193.569C101.658 193.681 102.085 193.664 102.477 193.519C102.511 193.494 102.539 193.462 102.559 193.425C102.579 193.387 102.591 193.346 102.593 193.304C102.599 193.294 102.602 193.282 102.602 193.271C102.602 193.259 102.599 193.247 102.593 193.237C102.394 193.127 101.731 193.359 101.256 193.569Z" fill="#407BFF"/>
<path d="M101.091 193.641H101.052C101.047 193.633 101.044 193.623 101.044 193.613C101.044 193.603 101.047 193.594 101.052 193.586C101.052 193.541 101.317 192.414 101.947 192.481C102.101 192.481 102.145 192.575 102.151 192.641C102.189 192.939 101.472 193.503 101.129 193.646L101.091 193.641ZM101.842 192.575C101.444 192.575 101.218 193.232 101.14 193.497C101.51 193.298 102.035 192.829 102.002 192.646C102.002 192.646 102.002 192.591 101.886 192.58L101.842 192.575Z" fill="#407BFF"/>
<path d="M101.207 193.608C101.049 193.629 100.897 193.685 100.763 193.771C100.629 193.857 100.514 193.971 100.428 194.105" stroke="#407BFF" stroke-width="0.26" stroke-linecap="round" stroke-linejoin="round"/>
<path d="M101.775 194.033C101.617 194.056 101.465 194.112 101.331 194.199C101.196 194.286 101.082 194.401 100.997 194.536" stroke="#407BFF" stroke-width="0.26" stroke-linecap="round" stroke-linejoin="round"/>
<path d="M102.482 194.37C102.324 194.393 102.172 194.449 102.038 194.536C101.903 194.623 101.789 194.738 101.704 194.873" stroke="#407BFF" stroke-width="0.26" stroke-linecap="round" stroke-linejoin="round"/>
<path opacity="0.3" d="M101.091 190.978L100.859 191.768L97.8495 191.309L97.9047 190.657L101.091 190.978Z" fill="black"/>
<path d="M117.727 145.525C117.727 145.525 119.936 154.691 120.974 162.851C121.346 165.606 121.286 168.402 120.797 171.138L116.711 191.464L111.571 190.95C112.377 182.182 113.503 171.37 113.829 166.768L107.915 148.337L117.727 145.525Z" fill="#407BFF"/>
<path d="M117.727 145.525C117.727 145.525 119.936 154.691 120.974 162.851C121.346 165.606 121.286 168.402 120.797 171.138L116.711 191.464L111.571 190.95C112.377 182.182 113.503 171.37 113.829 166.768L107.915 148.337L117.727 145.525Z" fill="#407BFF"/>
<g opacity="0.4">
<path d="M117.727 145.525C117.727 145.525 119.936 154.691 120.974 162.851C121.346 165.606 121.286 168.402 120.797 171.138L116.711 191.464L111.571 190.95C112.377 182.182 113.503 171.37 113.829 166.768L107.915 148.337L117.727 145.525Z" fill="black"/>
</g>
<path d="M100.947 168.403C101.063 167.895 101.251 166.862 101.499 165.508C101.67 163.713 101.98 155.376 102.543 150.066C102.979 146.68 103.846 144.387 104.718 143.265L104.84 143.111C104.983 142.928 105.072 142.829 105.072 142.829C105.237 142.873 105.403 142.912 105.569 142.945L105.707 142.989C109.373 143.77 113.18 143.579 116.75 142.437C117.669 144.926 118.315 147.509 118.677 150.138C118.037 150.845 115.215 151.757 111.979 152.348L111.052 156.525C110.571 159.116 109.947 161.658 109.395 163.945L108.843 166.448C108.81 166.613 108.777 166.779 108.749 166.939C108.468 168.376 101.781 191.58 101.781 191.58L97.4298 191.326C97.4298 191.326 99.3734 175.249 100.947 168.403Z" fill="#407BFF"/>
<path opacity="0.4" d="M100.947 168.403C101.063 167.895 101.251 166.862 101.499 165.508C101.67 163.713 101.98 155.376 102.543 150.066C102.979 146.68 103.846 144.387 104.718 143.265L104.84 143.111C104.983 142.928 105.072 142.829 105.072 142.829C105.237 142.873 105.403 142.912 105.569 142.945L105.707 142.989C109.373 143.77 113.18 143.579 116.75 142.437C117.669 144.926 118.315 147.509 118.677 150.138C118.037 150.845 115.215 151.757 111.979 152.348L111.052 156.525C110.571 159.116 109.947 161.658 109.395 163.945L108.843 166.448C108.81 166.613 108.777 166.779 108.749 166.939C108.468 168.376 101.781 191.58 101.781 191.58L97.4298 191.326C97.4298 191.326 99.3734 175.249 100.947 168.403Z" fill="black"/>
<path opacity="0.2" d="M117.407 144.232C117.407 144.232 115.53 146.215 111.847 146.249C108.164 146.282 104.05 144.138 104.05 144.138L104.514 143.342L115.094 144.497L117.12 143.342L117.407 144.232Z" fill="black"/>
<path opacity="0.2" d="M110.82 157.475C110.82 157.564 112.973 149.669 112.973 149.669C112.973 149.669 114.078 155.635 111.477 159.718L110.82 157.475Z" fill="black"/>
<path d="M103.007 131.812L102.366 125.309C103.84 124.459 107.424 123.652 107.424 123.652L110.737 123.834C110.737 123.834 112.007 124.116 113.089 124.47C114.541 124.939 115.298 125.32 115.668 126.127C115.668 126.127 116.27 127.906 115.911 131.58C115.811 132.591 115.58 137.923 115.861 139.652L117.91 143.663C111.886 148.359 104.172 143.663 104.172 143.663C104.564 142.537 104.892 141.39 105.155 140.227C105.066 139.193 104.774 138.514 104.337 136.702C104.244 136.359 103.15 132.155 103.007 131.812Z" fill="#407BFF"/>
<path opacity="0.7" d="M103.007 131.812L102.504 125.309C102.863 124.79 106.596 123.862 106.596 123.862H110.72C110.72 123.862 111.99 124.144 113.073 124.497C114.525 124.967 115.281 125.348 115.651 126.155C115.651 126.155 116.253 127.934 115.894 131.608C115.795 132.619 115.563 137.95 115.845 139.68L117.893 143.691C111.869 148.387 104.155 143.691 104.155 143.691C104.554 142.556 104.887 141.399 105.155 140.227C105.066 139.193 104.774 138.514 104.337 136.702C104.244 136.359 103.15 132.155 103.007 131.812Z" fill="white"/>
<path d="M105.221 113.972C105.221 113.972 104.045 118.177 104.221 119.354C103.592 120.216 102.709 118.983 102.3 117.144C101.969 115.641 102.366 113.829 103.52 112.956C105.155 111.718 105.221 113.972 105.221 113.972Z" fill="#263238"/>
<path d="M107.015 123.801C107.169 123.655 107.279 123.47 107.336 123.265C107.392 123.061 107.392 122.845 107.336 122.641C107.26 122.228 107.136 121.826 106.966 121.442L107.474 120.851L110.124 118.166C110.058 119.956 109.842 122.834 111.228 123.807C111.228 123.807 112.67 124.359 113.437 124.624C113.36 125.144 113.15 128.657 110.466 128.436C108.026 128.243 104.52 125.088 104.912 124.387C105.613 124.166 106.358 123.95 107.015 123.801Z" fill="#FDBBB5"/>
<path opacity="0.2" d="M107.363 123.028C108.12 122.829 109.196 122.287 109.351 121.414C109.409 121.103 109.422 120.785 109.39 120.47L107.181 121.95C107.29 122.3 107.351 122.662 107.363 123.028Z" fill="black"/>
<path d="M110.096 115.398C110.384 118.127 110.566 119.265 109.467 120.956C107.811 123.481 104.47 123.414 103.393 120.867C102.421 118.575 102.107 114.503 104.498 112.851C105.001 112.475 105.597 112.242 106.221 112.175C106.846 112.108 107.477 112.21 108.049 112.47C108.62 112.73 109.112 113.139 109.472 113.654C109.832 114.169 110.048 114.771 110.096 115.398Z" fill="#FDBBB5"/>
<path d="M106.717 117.188C106.754 117.29 106.753 117.402 106.715 117.503C106.676 117.604 106.603 117.689 106.507 117.74C106.336 117.79 106.154 117.635 106.093 117.381C106.056 117.279 106.057 117.167 106.096 117.066C106.134 116.965 106.208 116.88 106.303 116.829C106.474 116.779 106.662 116.939 106.717 117.188Z" fill="#263238"/>
<path d="M103.962 117.602C104.003 117.7 104.008 117.81 103.975 117.911C103.943 118.012 103.875 118.099 103.785 118.155C103.614 118.215 103.426 118.077 103.355 117.834C103.312 117.736 103.307 117.626 103.34 117.525C103.372 117.423 103.44 117.337 103.531 117.282C103.702 117.221 103.89 117.365 103.962 117.602Z" fill="#263238"/>
<path d="M107.22 116.166C107.204 116.173 107.187 116.176 107.17 116.176C107.153 116.176 107.136 116.173 107.12 116.166C106.984 116.076 106.827 116.021 106.664 116.008C106.501 115.994 106.337 116.022 106.187 116.088C106.172 116.097 106.156 116.102 106.138 116.103C106.121 116.104 106.104 116.102 106.088 116.096C106.072 116.091 106.057 116.082 106.045 116.07C106.032 116.058 106.022 116.043 106.016 116.027C106.002 115.994 106.001 115.957 106.014 115.923C106.026 115.89 106.05 115.862 106.082 115.845C106.269 115.758 106.475 115.72 106.681 115.734C106.887 115.749 107.085 115.815 107.258 115.928C107.288 115.948 107.308 115.979 107.316 116.014C107.323 116.049 107.316 116.086 107.297 116.116C107.279 116.142 107.251 116.16 107.22 116.166Z" fill="#263238"/>
<path d="M102.979 116.602C102.962 116.602 102.945 116.598 102.93 116.59C102.915 116.582 102.901 116.571 102.891 116.558C102.879 116.546 102.869 116.532 102.862 116.516C102.856 116.501 102.852 116.484 102.852 116.467C102.852 116.45 102.856 116.433 102.862 116.417C102.869 116.402 102.879 116.388 102.891 116.376C103.052 116.231 103.245 116.127 103.454 116.071C103.663 116.016 103.883 116.01 104.094 116.055C104.111 116.059 104.127 116.066 104.141 116.076C104.155 116.087 104.166 116.1 104.174 116.116C104.182 116.131 104.186 116.148 104.187 116.165C104.188 116.182 104.184 116.2 104.177 116.215C104.165 116.249 104.141 116.277 104.109 116.294C104.078 116.312 104.041 116.317 104.006 116.309C103.838 116.278 103.664 116.285 103.499 116.33C103.333 116.375 103.18 116.457 103.051 116.569C103.032 116.588 103.006 116.6 102.979 116.602Z" fill="#263238"/>
<path d="M111.339 117.42C111.248 117.694 111.104 117.948 110.914 118.166C110.725 118.385 110.494 118.563 110.235 118.691C109.566 119.011 108.97 117.945 109.069 117.188C109.118 116.845 109.288 116.531 109.549 116.303C109.809 116.075 110.142 115.948 110.489 115.945C110.654 115.96 110.814 116.016 110.954 116.106C111.095 116.196 111.211 116.318 111.294 116.463C111.378 116.607 111.425 116.769 111.433 116.936C111.441 117.102 111.408 117.268 111.339 117.42Z" fill="#FDBBB5"/>
<path d="M104.851 117.21C104.73 117.83 104.545 118.435 104.299 119.017C104.285 119.046 104.278 119.079 104.278 119.112C104.279 119.145 104.288 119.177 104.303 119.206C104.319 119.235 104.341 119.26 104.368 119.279C104.395 119.298 104.426 119.31 104.459 119.315C104.706 119.338 104.954 119.292 105.177 119.182L104.851 117.21Z" fill="#FF726E"/>
<path d="M106.353 116.812L105.712 116.845C105.712 116.845 106.171 117.199 106.353 116.812Z" fill="#263238"/>
<path d="M103.598 117.271L102.957 117.337C102.957 117.337 103.437 117.663 103.598 117.271Z" fill="#263238"/>
<path d="M110.466 113.779C110.947 114.216 110.593 115.895 110.593 115.895C110.593 115.895 109.23 115.818 109.616 117.757C109.163 117.945 108.214 116.282 107.86 114.442C107.711 113.42 109.611 113.011 110.466 113.779Z" fill="#263238"/>
<path d="M102.609 114.088C102.891 112.79 104.923 111.16 107.822 111.657C110.439 112.111 111.946 115.403 110.262 115.945C108.578 116.486 106.148 115.287 106.148 115.287L102.609 114.088Z" fill="#263238"/>
<path opacity="0.2" d="M110.124 116.724C110.22 116.667 110.334 116.647 110.443 116.67C110.552 116.692 110.649 116.755 110.715 116.845C110.858 117.05 110.858 117.602 110.207 117.95" stroke="black" stroke-width="0.26" stroke-linecap="round" stroke-linejoin="round"/>
<path d="M105.779 119.889C106.02 119.839 106.244 119.724 106.426 119.557C106.607 119.389 106.741 119.176 106.811 118.939" stroke="#263238" stroke-width="0.26" stroke-linecap="round" stroke-linejoin="round"/>
<path d="M104.939 137.116C104.939 137.116 106.966 137.635 107.236 138.144C107.507 138.652 106.684 138.657 106.684 138.657C106.684 138.657 107.59 138.713 107.617 139.099C107.645 139.486 106.811 139.563 106.811 139.563C106.811 139.563 107.545 139.635 107.551 139.983C107.557 140.331 106.579 140.409 106.579 140.409C106.579 140.409 107.093 140.558 106.955 140.801C106.817 141.044 104.746 141.226 104.133 140.873C103.52 140.519 103.47 137.867 103.448 137.276C103.436 137.003 103.492 136.73 103.61 136.483C103.729 136.237 103.906 136.023 104.128 135.862L104.879 137.099L104.939 137.116Z" fill="#FDAD6A"/>
<path opacity="0.2" d="M106.684 138.702L105.11 138.536C105.1 138.533 105.09 138.527 105.084 138.517C105.078 138.508 105.076 138.497 105.077 138.486C105.079 138.475 105.084 138.466 105.092 138.458C105.1 138.451 105.111 138.447 105.121 138.448L106.695 138.613C106.705 138.617 106.713 138.624 106.719 138.633C106.725 138.642 106.728 138.652 106.728 138.663C106.727 138.674 106.722 138.684 106.714 138.691C106.705 138.698 106.695 138.702 106.684 138.702Z" fill="black"/>
<path opacity="0.2" d="M106.75 139.608L105.226 139.564C105.221 139.564 105.215 139.563 105.211 139.561C105.206 139.558 105.201 139.555 105.198 139.55C105.195 139.546 105.193 139.541 105.192 139.535C105.191 139.53 105.191 139.524 105.193 139.519C105.192 139.514 105.193 139.509 105.194 139.503C105.196 139.498 105.199 139.494 105.202 139.49C105.206 139.486 105.211 139.483 105.216 139.482C105.221 139.48 105.227 139.48 105.232 139.481L106.756 139.519C106.761 139.519 106.767 139.52 106.772 139.522C106.777 139.525 106.781 139.528 106.784 139.533C106.788 139.537 106.79 139.542 106.791 139.547C106.791 139.553 106.791 139.558 106.789 139.564C106.789 139.564 106.767 139.608 106.75 139.608Z" fill="black"/>
<path opacity="0.2" d="M106.513 140.453H105.381C105.37 140.452 105.36 140.446 105.353 140.438C105.346 140.43 105.342 140.42 105.342 140.409C105.342 140.403 105.342 140.398 105.344 140.392C105.345 140.387 105.348 140.382 105.352 140.378C105.355 140.374 105.36 140.37 105.365 140.368C105.37 140.366 105.375 140.365 105.381 140.365H106.513C106.525 140.365 106.536 140.369 106.544 140.378C106.552 140.386 106.557 140.397 106.557 140.409C106.557 140.421 106.552 140.432 106.544 140.44C106.536 140.448 106.525 140.453 106.513 140.453Z" fill="black"/>
<path d="M130.891 134.398C130.891 134.398 129.235 135.177 129.096 135.657C128.958 136.138 129.649 136.005 129.649 136.005C129.649 136.005 128.881 136.204 128.92 136.558C128.958 136.912 129.704 136.818 129.704 136.818C129.704 136.818 129.085 137 129.152 137.298C129.218 137.597 130.052 137.503 130.052 137.503C130.052 137.503 129.638 137.718 129.792 137.901C129.947 138.083 131.747 137.901 132.227 137.497C132.708 137.094 132.398 134.779 132.227 134.298C132.167 134.144 132.006 133.889 131.123 133.784L130.963 134.387L130.891 134.398Z" fill="#FDBBB5"/>
<path opacity="0.2" d="M129.66 136.044L130.979 135.635C130.985 135.629 130.988 135.621 130.988 135.613C130.988 135.605 130.985 135.597 130.979 135.591C130.973 135.587 130.965 135.584 130.957 135.584C130.949 135.584 130.942 135.587 130.935 135.591L129.616 135.994C129.605 135.994 129.595 135.998 129.588 136.006C129.581 136.013 129.577 136.023 129.577 136.033C129.577 136.043 129.581 136.053 129.588 136.06C129.595 136.068 129.605 136.072 129.616 136.072L129.66 136.044Z" fill="black"/>
<path opacity="0.2" d="M129.754 136.829L131.057 136.541C131.062 136.535 131.065 136.527 131.065 136.519C131.065 136.511 131.062 136.503 131.057 136.497C131.051 136.492 131.045 136.489 131.037 136.489C131.03 136.489 131.023 136.492 131.018 136.497L129.72 136.784C129.72 136.784 129.687 136.784 129.72 136.829C129.754 136.873 129.737 136.834 129.754 136.829Z" fill="black"/>
<path opacity="0.2" d="M130.096 137.519L131.068 137.331C131.073 137.331 131.078 137.329 131.082 137.327C131.086 137.324 131.09 137.32 131.092 137.316C131.095 137.312 131.097 137.307 131.097 137.302C131.098 137.297 131.097 137.292 131.095 137.287C131.094 137.278 131.089 137.269 131.082 137.263C131.075 137.257 131.066 137.254 131.057 137.254L130.085 137.442C130.08 137.442 130.075 137.444 130.071 137.447C130.067 137.449 130.063 137.453 130.06 137.457C130.058 137.462 130.056 137.466 130.055 137.471C130.055 137.476 130.056 137.481 130.057 137.486C130.059 137.495 130.063 137.504 130.07 137.51C130.077 137.516 130.087 137.519 130.096 137.519Z" fill="black"/>
<path d="M120.013 115.779C120.013 115.779 120.334 114.072 119.461 111.044L119.621 110.945C119.505 110.519 119.378 110.133 119.257 109.79L123.376 112.365C123.364 113.589 123.514 114.81 123.823 115.994C123.823 115.994 124.342 117.425 122.443 117.481C121.057 117.525 120.013 115.779 120.013 115.779Z" fill="#FDAD6A"/>
<path opacity="0.2" d="M123.448 113.707L121.068 113.155C121.283 113.895 121.935 114.774 123.591 114.851C123.515 114.474 123.467 114.092 123.448 113.707Z" fill="black"/>
<path d="M123.785 103.679C124.629 104.342 125.397 106.597 123.834 106.845C122.272 107.094 122.332 102.541 123.785 103.679Z" fill="#263238"/>
<path d="M118.235 109.409C119.594 111.668 120.312 112.972 122.101 113.541C124.806 114.403 127.07 111.884 126.424 109.26C125.828 106.895 123.702 103.597 120.947 103.884C120.335 103.948 119.751 104.167 119.247 104.519C118.743 104.871 118.337 105.345 118.066 105.897C117.795 106.449 117.668 107.061 117.698 107.675C117.728 108.289 117.913 108.885 118.235 109.409Z" fill="#FDAD6A"/>
<path d="M115.596 106.729C115.458 104.282 119.34 103.608 120.566 103.796C120.753 103.823 119.34 105.779 119.461 105.674L118.727 106.459C118.572 106.497 118.384 106.801 118.467 107.304C118.467 107.304 120.096 109.597 119.627 111.171C118.368 111.232 118.037 110.934 117.341 110.221C116.354 109.308 115.734 108.067 115.596 106.729Z" fill="#263238"/>
<path d="M118.324 111.834C118.557 112.064 118.833 112.246 119.136 112.369C119.439 112.493 119.763 112.555 120.091 112.552C120.969 112.552 121.162 111.68 120.715 110.978C120.267 110.276 119.367 109.597 118.583 109.956C118.414 110.037 118.268 110.159 118.157 110.311C118.047 110.463 117.976 110.639 117.95 110.825C117.924 111.011 117.945 111.201 118.01 111.377C118.075 111.553 118.183 111.71 118.324 111.834Z" fill="#FDAD6A"/>
<path d="M121.924 108.343C122.045 108.58 122.272 108.707 122.432 108.624C122.592 108.541 122.609 108.276 122.487 108.039C122.366 107.801 122.134 107.674 121.979 107.757C121.824 107.84 121.797 108.099 121.924 108.343Z" fill="#263238"/>
<path d="M124.287 107.166C124.414 107.403 124.641 107.53 124.795 107.448C124.95 107.365 124.977 107.105 124.85 106.867C124.723 106.63 124.502 106.503 124.342 106.586C124.182 106.669 124.166 106.928 124.287 107.166Z" fill="#263238"/>
<path d="M123.459 107.431C123.459 107.431 124.834 108.221 125.325 108.58C125.238 108.74 125.118 108.88 124.972 108.99C124.826 109.099 124.659 109.176 124.48 109.215L123.459 107.431Z" fill="#FE7F3A"/>
<path d="M120.753 107.519C120.775 107.516 120.796 107.508 120.814 107.496C120.832 107.483 120.847 107.467 120.858 107.447C120.92 107.301 121.015 107.17 121.135 107.067C121.256 106.963 121.4 106.889 121.554 106.851C121.583 106.842 121.608 106.823 121.624 106.797C121.641 106.771 121.647 106.74 121.642 106.71C121.638 106.679 121.622 106.652 121.599 106.632C121.576 106.612 121.546 106.602 121.515 106.602C121.318 106.646 121.133 106.736 120.977 106.865C120.82 106.993 120.696 107.157 120.615 107.343C120.602 107.373 120.602 107.408 120.614 107.439C120.627 107.47 120.651 107.495 120.681 107.508C120.703 107.52 120.729 107.524 120.753 107.519Z" fill="#263238"/>
<path opacity="0.2" d="M118.523 110.912C118.54 110.818 118.585 110.732 118.65 110.663C118.716 110.595 118.8 110.547 118.892 110.525C119.081 110.491 119.276 110.522 119.445 110.613C119.65 110.714 119.825 110.866 119.953 111.055" stroke="black" stroke-width="0.26" stroke-linecap="round" stroke-linejoin="round"/>
<path d="M124.795 105.619C124.805 105.612 124.814 105.603 124.821 105.593C124.828 105.582 124.832 105.57 124.834 105.558C124.838 105.529 124.832 105.499 124.817 105.474C124.802 105.449 124.779 105.43 124.751 105.42C124.565 105.362 124.368 105.349 124.176 105.382C123.984 105.414 123.803 105.492 123.647 105.608C123.627 105.63 123.615 105.66 123.615 105.69C123.614 105.72 123.625 105.75 123.644 105.773C123.663 105.796 123.69 105.812 123.72 105.817C123.75 105.822 123.781 105.817 123.807 105.801C123.933 105.707 124.081 105.646 124.237 105.622C124.393 105.597 124.552 105.612 124.701 105.663C124.719 105.664 124.737 105.66 124.754 105.653C124.77 105.645 124.784 105.633 124.795 105.619Z" fill="#263238"/>
<path d="M117.081 105.453C117.047 104.9 117.184 104.351 117.475 103.88C117.766 103.409 118.195 103.039 118.705 102.823C119.367 102.654 120.048 102.569 120.731 102.569C121.071 102.567 121.405 102.487 121.709 102.335C122.013 102.182 122.277 101.962 122.482 101.691C122.658 101.398 122.824 101 123.15 101C123.27 101.022 123.381 101.081 123.468 101.168C123.555 101.255 123.613 101.366 123.636 101.486C123.688 101.723 123.688 101.968 123.636 102.204L124.342 101.84C124.443 102.23 124.459 102.638 124.387 103.034C124.316 103.431 124.159 103.808 123.928 104.138C123.477 104.75 122.896 105.253 122.228 105.613C121.469 106.107 120.611 106.427 119.715 106.552C119.245 106.604 118.77 106.56 118.317 106.424C117.865 106.287 117.444 106.06 117.081 105.757V105.453Z" fill="#263238"/>
<path d="M117.302 103.641C117.402 103.392 117.552 103.166 117.742 102.976C117.931 102.786 118.158 102.636 118.407 102.536C118.886 102.403 119.378 102.319 119.875 102.287C120.13 102.274 120.378 102.203 120.602 102.08C120.825 101.958 121.018 101.787 121.167 101.58C121.3 101.343 121.416 101.028 121.686 101.028C121.957 101.028 122.001 101.276 122.023 101.481C122.046 101.734 121.997 101.989 121.88 102.215C121.764 102.441 121.586 102.629 121.366 102.757L117.346 105.221C117.232 104.975 117.169 104.707 117.162 104.436C117.154 104.164 117.202 103.894 117.302 103.641Z" fill="#263238"/>
<path d="M124.248 110.475C124.016 110.577 123.76 110.612 123.508 110.577C123.257 110.542 123.02 110.438 122.824 110.276" stroke="#263238" stroke-width="0.26" stroke-linecap="round" stroke-linejoin="round"/>
<path d="M123.867 115.387L125.541 116.967L122.796 120.083L118.534 117.188L120.069 115.127L122.493 117.149L123.867 115.387Z" fill="#407BFF"/>
<path opacity="0.2" d="M131.106 133.768L130.405 122.26C130.405 122.26 131.658 126.807 131.658 129.376C131.665 130.857 131.48 132.334 131.106 133.768Z" fill="black"/>
<path d="M81.8587 159.834C81.8587 159.834 80.1249 159.906 79.3795 162.044C78.6341 164.182 78.0046 166.569 78.0046 166.569L81.1464 167.122L81.8587 159.834Z" fill="#407BFF"/>
<path d="M78.3912 192.972L77.3089 194.039L78.2863 195.044L79.501 194.099L78.3912 192.972Z" fill="#FDAD6A"/>
<path d="M79.4734 195.094C79.4952 195.061 79.5069 195.023 79.5069 194.983C79.5069 194.944 79.4952 194.906 79.4734 194.873C79.4659 194.849 79.4523 194.828 79.4338 194.812C79.4153 194.795 79.3928 194.784 79.3685 194.779C79.1587 194.729 78.7445 195.116 78.6948 195.155C78.6894 195.171 78.6894 195.188 78.6948 195.204C78.7009 195.207 78.7075 195.209 78.7142 195.209C78.7209 195.209 78.7275 195.207 78.7335 195.204C78.8803 195.221 79.0284 195.221 79.1752 195.204C79.2847 195.205 79.3906 195.166 79.4734 195.094ZM79.3519 194.856C79.3635 194.86 79.3741 194.867 79.3827 194.875C79.3914 194.884 79.3979 194.894 79.4016 194.906C79.4149 194.927 79.422 194.951 79.422 194.975C79.422 195 79.4149 195.024 79.4016 195.044C79.3354 195.133 79.12 195.171 78.8495 195.16C79.0261 195.011 79.2746 194.834 79.4016 194.856H79.3519Z" fill="#407BFF"/>
<path d="M78.7887 195.348C78.8927 196.122 79.193 196.856 79.6611 197.481C79.8599 197.707 79.4624 198.265 78.9102 197.851C78.3562 197.388 77.8341 196.887 77.3476 196.354C76.7954 195.773 76.5414 195.569 76.0831 195.116C76.0298 195.061 76 194.988 76 194.912C76 194.835 76.0298 194.762 76.0831 194.707L77.1874 193.751C77.209 193.731 77.2377 193.719 77.2675 193.719C77.2973 193.719 77.326 193.731 77.3476 193.751L78.6507 195.083C78.7243 195.154 78.7728 195.247 78.7887 195.348Z" fill="#263238"/>
<path d="M88.8878 194.923V196.447H90.2848L90.467 194.923H88.8878Z" fill="#FDAD6A"/>
<path d="M91.9579 174.133C91.9579 174.133 85.8012 172.939 87.0933 178.094C87.1706 178.426 87.2534 178.785 87.3252 179.16C87.6179 180.696 87.8442 182.619 88.0099 184.597C88.4516 189.829 88.5068 195.011 88.5068 195.011L91.0965 195.094C92.4548 188.188 92.4548 181.149 91.9579 174.133Z" fill="#263238"/>
<path opacity="0.2" d="M89.5338 176.956C88.6062 176.635 87.8773 178.171 87.1816 178.459C87.4687 179.983 87.7338 181.983 87.927 183.983C89.7713 182.492 89.5338 176.945 89.5338 176.956Z" fill="black"/>
<path d="M91.4112 173.978C91.7259 176.006 87.5074 178.111 87.5074 178.111C87.0325 180.818 86.0662 185.177 85.0006 187.713C83.7637 190.773 79.7274 194.575 79.7274 194.575L77.8335 193.033C80.7213 188.42 81.5219 185.851 81.4612 183.978C81.2017 175.989 81.2348 175.039 81.5882 173.26C81.5882 173.26 91.0965 171.945 91.4112 173.978Z" fill="#263238"/>
<path d="M98.2526 150.624C98.2526 150.624 97.0157 156.149 96.1764 157C95.3371 157.851 89.8486 164.867 89.8486 164.867L88.9431 161.497L94.1113 155.989L97.0268 150.392L98.2526 150.624Z" fill="#FDAD6A"/>
<path d="M91.1517 164.779L91.3173 164.094C91.3173 164.094 94.0009 160.873 95.1825 159.503L92.6701 157.133L89.832 159.613L91.1517 164.779Z" fill="#407BFF"/>
<path d="M91.5493 166.746C91.4002 165.856 91.2787 164.939 91.1904 164.066C91.1195 163.315 91.0955 162.56 91.1186 161.807C91.1572 160.923 91.4996 159.597 90.6437 159.331C89.6553 159.072 87.7172 159.503 86.6902 159.514C83.2281 159.514 81.8588 159.834 81.8588 159.834C81.6543 160.584 81.5066 161.349 81.417 162.121C81.3673 162.635 81.3121 163.226 81.2679 163.934C81.279 164.047 81.279 164.162 81.2679 164.276C81.254 164.427 81.254 164.578 81.2679 164.729C81.2679 164.994 81.2238 165.282 81.2238 165.547C81.1575 166.381 81.1575 167.276 81.1575 168.204C81.1575 169.558 81.025 172.917 81.1575 174.32C85.8012 173.724 90.4781 173.668 92.88 174.574C92.8524 174.574 92.0517 169.558 91.5493 166.746Z" fill="#407BFF"/>
<path d="M91.3174 164.337C91.0965 162.768 90.8701 161.779 90.5167 160.232" stroke="#263238" stroke-width="0.13" stroke-linecap="round" stroke-linejoin="round"/>
<path d="M81.152 167.47C81.152 166.365 81.152 162.547 81.152 161.392" stroke="#263238" stroke-width="0.13" stroke-linecap="round" stroke-linejoin="round"/>
<path d="M87.905 159.442C87.6797 159.17 87.5141 158.854 87.419 158.515C87.3239 158.175 87.3013 157.819 87.3528 157.47C87.3968 157.103 87.4974 156.745 87.651 156.409L85.481 157.171L84.4926 157.508C84.7234 157.748 84.897 158.037 85.0006 158.354C85.0842 158.757 85.0297 159.178 84.846 159.547C84.7024 160.652 86.8006 161.254 86.8006 161.254C88.678 160.226 87.905 159.442 87.905 159.442Z" fill="#FDAD6A"/>
<path opacity="0.2" d="M84.465 157.525L85.4534 157.182L87.6234 156.425C87.4691 156.761 87.3702 157.119 87.3307 157.486C87.2664 157.967 87.3412 158.456 87.5461 158.895C87.5461 158.895 85.0227 158.282 84.8294 158.028L84.465 157.525Z" fill="black"/>
<path d="M87.8498 153.42C89.7658 149.989 86.3534 148.923 86.3534 148.923C86.3534 148.923 85.6908 157.298 87.8498 153.42Z" fill="#263238"/>
<path d="M84.6361 149.519C87.3528 149.099 89.3516 151.978 89.8651 154.111C90.4173 156.475 89.4952 157.519 86.2761 158.199C84.5257 158.569 82.5269 156.84 81.5772 154.928C80.274 152.271 81.9195 149.945 84.6361 149.519Z" fill="#FDAD6A"/>
<path d="M83.6202 148.702C81.0526 149.685 79.0262 151.801 80.401 154.575C82.2839 158.376 84.2386 157.845 84.2386 157.845C83.5926 156.022 84.8681 154.652 84.0564 153.425C84.0198 153.384 83.9865 153.34 83.957 153.293C83.7737 153 83.7137 152.647 83.7903 152.311C83.8669 151.974 84.0738 151.681 84.3656 151.497C85.4169 151.309 86.3977 150.839 87.2037 150.138C87.916 148.812 85.7791 147.856 83.6202 148.702Z" fill="#263238"/>
<path d="M86.381 153.077C86.5411 153.011 86.762 153.149 86.8724 153.398C86.9829 153.647 86.9442 153.901 86.7841 153.95C86.624 154 86.4031 153.884 86.2927 153.641C86.1822 153.398 86.2375 153.149 86.381 153.077Z" fill="#263238"/>
<path d="M88.3301 152.127C88.4848 152.061 88.7056 152.21 88.805 152.431C88.9044 152.652 88.8713 152.895 88.7167 152.983C88.5621 153.072 88.3467 152.923 88.2418 152.685C88.1369 152.448 88.1755 152.199 88.3301 152.127Z" fill="#263238"/>
<path d="M86.4141 152.171C86.2618 152.199 86.1186 152.264 85.9973 152.361C85.876 152.457 85.7802 152.582 85.7184 152.724C85.7072 152.754 85.685 152.779 85.6563 152.793C85.6276 152.807 85.5946 152.81 85.5638 152.801C85.5335 152.789 85.5092 152.765 85.4958 152.735C85.4825 152.706 85.4811 152.672 85.492 152.641C85.5633 152.465 85.6766 152.309 85.8219 152.187C85.9672 152.064 86.1402 151.979 86.3258 151.939C86.341 151.934 86.3571 151.932 86.3731 151.934C86.389 151.935 86.4045 151.94 86.4185 151.948C86.4325 151.956 86.4448 151.966 86.4545 151.979C86.4642 151.992 86.4711 152.007 86.4749 152.022C86.4833 152.047 86.4833 152.074 86.4749 152.099C86.462 152.129 86.4409 152.154 86.4141 152.171Z" fill="#263238"/>
<path d="M88.3246 151.365C88.1771 151.322 88.0217 151.314 87.8705 151.341C87.7192 151.367 87.5761 151.428 87.4522 151.519C87.4288 151.541 87.3983 151.552 87.3666 151.552C87.3349 151.552 87.3044 151.541 87.281 151.519C87.2584 151.497 87.2458 151.466 87.2458 151.434C87.2458 151.402 87.2584 151.371 87.281 151.348C87.4322 151.222 87.6126 151.136 87.8056 151.099C87.9986 151.061 88.198 151.073 88.3854 151.133C88.4003 151.136 88.4143 151.143 88.4266 151.153C88.4389 151.162 88.4492 151.174 88.457 151.187C88.4647 151.2 88.4696 151.215 88.4716 151.23C88.4735 151.246 88.4723 151.261 88.4682 151.276C88.4661 151.289 88.4611 151.301 88.4534 151.312C88.4457 151.322 88.4356 151.331 88.424 151.337C88.4109 151.349 88.3951 151.358 88.3777 151.363C88.3604 151.368 88.3422 151.368 88.3246 151.365Z" fill="#263238"/>
<path d="M89.0148 153.724C88.8601 153.965 88.6398 154.156 88.3798 154.276L87.8718 153.204C88.2179 153.446 88.6053 153.622 89.0148 153.724Z" fill="#FE7F3A"/>
<path d="M87.2369 154.939C87.227 154.929 87.2192 154.918 87.2139 154.905C87.2085 154.892 87.2058 154.879 87.2058 154.865C87.2058 154.851 87.2085 154.837 87.2139 154.824C87.2192 154.811 87.227 154.8 87.2369 154.79C87.2466 154.78 87.2582 154.772 87.271 154.767C87.2838 154.762 87.2975 154.759 87.3114 154.759C87.3253 154.759 87.339 154.762 87.3518 154.767C87.3646 154.772 87.3762 154.78 87.3859 154.79C87.5379 154.971 87.7519 155.088 87.986 155.119C88.22 155.149 88.4571 155.091 88.6504 154.956C88.6699 154.938 88.6955 154.927 88.7222 154.927C88.7489 154.927 88.7745 154.938 88.794 154.956C88.8037 154.965 88.8114 154.976 88.8166 154.989C88.8219 155.001 88.8246 155.014 88.8246 155.028C88.8246 155.041 88.8219 155.054 88.8166 155.067C88.8114 155.079 88.8037 155.09 88.794 155.099C88.6795 155.178 88.5525 155.235 88.4185 155.271C88.2109 155.339 87.9878 155.343 87.7774 155.284C87.5671 155.225 87.379 155.105 87.2369 154.939Z" fill="#263238"/>
<path d="M83.7803 152.116C84.6914 152.939 84.9288 151.337 84.9288 151.337C84.9288 151.337 85.0724 151.558 85.8233 151.536C86.5742 151.514 86.3368 150.63 86.3368 150.63C86.3368 150.63 87.5902 150.845 87.7724 150.365C87.9547 149.884 86.5301 149.564 86.5301 149.564C86.5301 149.564 82.8692 151.276 83.7803 152.116Z" fill="#263238"/>
<path d="M82.9189 155.028C83.2557 154.779 83.8576 155.028 84.2552 155.541C84.6527 156.055 84.7079 156.713 84.3711 156.967C84.0343 157.221 83.4269 156.967 83.0293 156.464C82.6318 155.961 82.5821 155.282 82.9189 155.028Z" fill="#FDAD6A"/>
<path d="M99.8649 130.69C99.8649 130.69 96.5022 139.348 96.32 140.121C96.1378 140.895 96.5353 147.602 96.5353 147.602L98.363 147.873C98.363 147.873 99.1857 141.243 99.4673 140.392C99.7489 139.541 102.935 132.326 102.935 132.326L99.8649 130.69Z" fill="#FDBBB5"/>
<path d="M96.4525 152.536C97.2476 152.138 97.1317 150.878 97.1317 150.878L98.3961 147.801L96.5629 147.387C96.2151 148.033 94.9451 149.691 94.68 150.376C94.68 150.58 95.1604 151.889 95.1604 151.889C95.1604 151.889 95.6574 152.934 96.4525 152.536Z" fill="#FDBBB5"/>
<path d="M96.8114 151.193C96.8114 151.193 95.8782 150.171 95.9169 149.763C95.9555 149.354 96.4193 149.68 96.4193 149.68C96.4193 149.68 95.9334 149.315 96.0604 149.088C96.1874 148.862 96.6954 149.138 96.6954 149.138C96.6954 149.138 96.3089 148.818 96.4414 148.624C96.5739 148.431 97.1427 148.751 97.1427 148.751C97.1427 148.751 96.9108 148.475 97.0764 148.392C97.7076 148.545 98.2706 148.903 98.6777 149.409C98.8985 149.845 97.9212 151.332 97.7114 151.674C97.6189 151.835 97.4875 151.97 97.3292 152.066C97.171 152.163 96.991 152.218 96.8058 152.227L96.839 151.249L96.8114 151.193Z" fill="#FDAD6A"/>
<path opacity="0.2" d="M97.2035 148.74L97.8384 149.16C97.8425 149.166 97.8447 149.173 97.8447 149.179C97.8447 149.186 97.8425 149.193 97.8384 149.199C97.8333 149.204 97.8263 149.207 97.8191 149.207C97.8119 149.207 97.805 149.204 97.7998 149.199L97.1648 148.773C97.1648 148.773 97.1648 148.773 97.1648 148.735L97.2035 148.74Z" fill="black"/>
<path d="M79.6004 174.746C79.6823 175.039 79.7414 175.338 79.777 175.641C79.777 175.873 79.2856 177.486 79.0924 177.326C78.8991 177.166 78.877 177.083 78.9378 176.713C78.9985 176.343 79.0924 176.017 78.9378 176.072C78.6289 176.472 78.424 176.943 78.3414 177.442C78.3414 177.762 78.4298 178.348 78.1813 178.425C78.1476 178.436 78.1122 178.439 78.0772 178.435C78.0422 178.431 78.0083 178.421 77.9774 178.404C77.9466 178.387 77.9194 178.364 77.8976 178.336C77.8757 178.309 77.8595 178.277 77.85 178.243C77.85 178.243 77.7396 178.53 77.585 178.365C77.2798 177.911 77.0781 177.396 76.9941 176.856C76.9941 176.475 78.0101 174.972 78.1592 174.608C78.2034 174.503 78.7114 166.713 78.7114 166.713L80.7986 167.077L79.6004 174.746Z" fill="#FDAD6A"/>
<path opacity="0.2" d="M103.404 133.193L104.006 135.464C104.006 135.464 105.282 127.663 104.354 129.79C104.304 129.906 103.404 133.193 103.404 133.193Z" fill="black"/>
<path d="M102.99 134.309L98.4955 132.442C98.4955 132.442 101.494 124.398 103.349 125.006C106.375 126.006 102.99 134.309 102.99 134.309Z" fill="#407BFF"/>
<path opacity="0.7" d="M102.99 134.309L98.4955 132.442C98.4955 132.442 101.494 124.398 103.349 125.006C106.375 126.006 102.99 134.309 102.99 134.309Z" fill="white"/>
<path d="M149.59 178.863C147.429 179.624 144.929 179.028 143.108 177.636C141.286 176.243 140.096 174.146 139.465 171.943C138.974 170.239 138.797 168.397 139.305 166.695C139.813 164.994 141.093 163.469 142.796 162.976C142.56 160.821 142.594 158.611 143.149 156.511C143.703 154.41 144.809 152.422 146.496 151.04C149.179 148.825 153.131 148.445 156.366 149.747C159.6 151.05 162.108 153.844 163.447 157.056C164.787 160.268 165.035 163.871 164.594 167.327C165.001 166.371 166.386 166.163 167.268 166.714C168.151 167.265 168.591 168.315 168.786 169.338C169.075 170.865 168.931 172.442 168.371 173.891C167.811 175.341 166.857 176.605 165.617 177.541C164.376 178.477 162.899 179.048 161.352 179.19C159.804 179.331 158.248 179.037 156.859 178.34" fill="#40C3BB"/>
<path d="M149.055 194.571C149.055 194.419 152.442 184.11 150.974 181.74C149.507 179.369 145.632 175.269 145.632 175.269H146.835C146.835 175.269 151.332 178.955 151.332 178.541C151.332 178.127 152.131 171.806 152.131 171.806H153.068C153.068 171.806 151.688 176.732 153.757 176.358C155.826 175.983 157.177 171.995 157.177 171.995L158.832 173.011C158.832 173.011 156.694 176.133 156.053 180.122C155.412 184.112 155.414 194.571 155.414 194.571H149.055Z" fill="#A24E3F"/>
<path d="M147.661 168.172C147.808 168.863 148.1 169.514 148.518 170.083C148.936 170.651 149.471 171.124 150.086 171.47C151.082 172.004 152.233 172.175 153.341 171.956C154.45 171.736 155.448 171.139 156.165 170.265L155.931 170.203C156.064 170.898 156.38 171.544 156.846 172.075C157.312 172.606 157.912 173.003 158.584 173.224C159.255 173.445 159.973 173.483 160.664 173.333C161.355 173.183 161.993 172.851 162.512 172.372C162.647 172.25 162.449 172.051 162.314 172.173C161.829 172.618 161.234 172.926 160.591 173.063C159.947 173.2 159.279 173.163 158.655 172.954C158.031 172.745 157.474 172.373 157.043 171.876C156.612 171.379 156.322 170.776 156.203 170.128C156.196 170.105 156.183 170.084 156.165 170.066C156.148 170.049 156.126 170.037 156.102 170.031C156.078 170.025 156.053 170.025 156.03 170.031C156.006 170.037 155.984 170.049 155.967 170.067C155.534 170.595 154.991 171.022 154.376 171.318C153.761 171.614 153.089 171.772 152.406 171.781C151.738 171.783 151.077 171.636 150.473 171.352C149.868 171.067 149.334 170.652 148.909 170.136C148.416 169.549 148.078 168.848 147.925 168.097C147.89 167.91 147.62 167.994 147.656 168.172H147.661Z" fill="#263238"/>
<path d="M152.783 157.914C152.97 159.038 153.755 160.075 154.923 160.296C155.974 160.495 157.085 159.902 157.359 158.83C157.364 158.813 157.365 158.794 157.363 158.776C157.361 158.757 157.355 158.739 157.346 158.723C157.337 158.707 157.324 158.693 157.31 158.682C157.295 158.67 157.278 158.662 157.261 158.657C157.243 158.652 157.224 158.651 157.206 158.653C157.187 158.655 157.17 158.661 157.154 158.67C157.137 158.68 157.123 158.692 157.112 158.706C157.101 158.721 157.092 158.738 157.087 158.755C156.845 159.73 155.813 160.234 154.87 159.996C153.858 159.741 153.229 158.829 153.062 157.839C153.032 157.652 152.76 157.736 152.79 157.914H152.783Z" fill="#263238"/>
<path d="M28.0178 152.012C22.3011 154.025 15.687 152.448 10.8677 148.764C6.04839 145.08 2.89999 139.532 1.22911 133.701C-0.069913 129.194 -0.535975 124.321 0.807672 119.819C2.15132 115.317 5.53771 111.281 10.0446 109.977C9.41991 104.275 9.50915 98.4294 10.9768 92.8713C12.4444 87.3133 15.3696 82.0527 19.8319 78.3986C26.932 72.5381 37.3886 71.5316 45.9463 74.9775C54.504 78.4234 61.138 85.8159 64.683 94.3141C68.2281 102.812 68.8825 112.347 67.7174 121.49C68.7933 118.961 72.4573 118.411 74.7926 119.868C77.1279 121.326 78.293 124.102 78.8086 126.81C79.5725 130.85 79.1922 135.023 77.7104 138.858C76.2286 142.693 73.7045 146.038 70.4228 148.515C67.1411 150.991 63.2324 152.502 59.1379 152.875C55.0434 153.249 50.926 152.471 47.2503 150.628" fill="#40C3BB"/>
<path d="M26.6047 193.571C26.6047 193.169 35.564 165.894 31.6818 159.622C27.7996 153.35 17.5463 142.502 17.5463 142.502H20.7294C20.7294 142.502 32.6288 152.255 32.6288 151.159C32.6288 150.063 34.741 133.34 34.741 133.34H37.22C37.22 133.34 33.5709 146.374 39.0446 145.383C44.5184 144.391 48.0932 133.84 48.0932 133.84L52.4712 136.528C52.4712 136.528 46.814 144.788 45.1183 155.344C43.4226 165.899 43.4276 193.571 43.4276 193.571H26.6047Z" fill="#A24E3F"/>
<path d="M22.9159 123.726C23.3036 125.553 24.0765 127.276 25.1828 128.781C26.2891 130.285 27.7035 131.537 29.3317 132.452C31.9675 133.864 35.0113 134.317 37.9442 133.736C40.8772 133.155 43.5177 131.574 45.4158 129.264L44.796 129.1C45.1471 130.937 45.983 132.647 47.2171 134.052C48.4512 135.457 50.0386 136.506 51.8148 137.091C53.5909 137.677 55.4913 137.776 57.3189 137.38C59.1465 136.983 60.8348 136.105 62.2089 134.837C62.5659 134.514 62.0403 133.989 61.6833 134.311C60.4018 135.489 58.8278 136.303 57.1253 136.666C55.4227 137.03 53.6539 136.93 52.0029 136.378C50.352 135.825 48.8793 134.84 47.7382 133.526C46.5971 132.211 45.8294 130.614 45.5149 128.902C45.4966 128.84 45.4625 128.783 45.4159 128.738C45.3693 128.692 45.3117 128.66 45.2488 128.643C45.186 128.627 45.1199 128.627 45.057 128.644C44.9942 128.66 44.9367 128.693 44.8902 128.738C43.7453 130.135 42.309 131.265 40.6818 132.049C39.0545 132.832 37.2757 133.251 35.4698 133.275C33.7016 133.279 31.9545 132.891 30.3545 132.138C28.7546 131.386 27.3417 130.287 26.218 128.922C24.9135 127.369 24.0186 125.515 23.615 123.527C23.5208 123.031 22.8068 123.255 22.901 123.726H22.9159Z" fill="#263238"/>
<path d="M36.4664 96.5849C36.9622 99.5598 39.0396 102.302 42.1285 102.887C44.91 103.412 47.8502 101.845 48.5741 99.0094C48.5871 98.9622 48.5907 98.9129 48.5847 98.8643C48.5786 98.8157 48.5631 98.7688 48.5389 98.7262C48.5147 98.6836 48.4824 98.6462 48.4438 98.6161C48.4052 98.586 48.361 98.5638 48.3138 98.5508C48.2666 98.5378 48.2173 98.5342 48.1687 98.5402C48.1201 98.5462 48.0731 98.5618 48.0305 98.5859C47.988 98.6101 47.9506 98.6424 47.9205 98.6811C47.8904 98.7197 47.8682 98.7639 47.8551 98.8111C47.2155 101.389 44.4836 102.723 41.9897 102.093C39.3123 101.419 37.6464 99.0044 37.2051 96.3866C37.1258 95.8908 36.4069 96.1139 36.4862 96.5849H36.4664Z" fill="#263238"/>
</svg>
