<svg xmlns="http://www.w3.org/2000/svg" width="64" height="64" fill="none" id="personal-loan">
  <path fill="#445CDA" fill-rule="evenodd" d="M23.891 10.667a5.762 5.762 0 1 0 0 11.523 5.762 5.762 0 0 0 0-11.523Zm-8.428 5.761a8.428 8.428 0 1 1 16.856 0 8.428 8.428 0 0 1-16.856 0Z" clip-rule="evenodd"></path>
  <path fill="#2B3151" fill-rule="evenodd" d="M41.891 29.334c-6.627 0-12 5.372-12 12 0 6.627 5.373 12 12 12s12-5.373 12-12c0-6.628-5.373-12-12-12zm-14.667 12c0-8.1 6.567-14.667 14.667-14.667s14.667 6.566 14.667 14.667C56.558 49.434 49.99 56 41.89 56s-14.667-6.566-14.667-14.666zm3.43-14.908c.765-.577.77-1.764-.1-2.162a16.002 16.002 0 0 0-6.663-1.44c-7.355 0-13.577 4.919-15.02 11.58-.535 2.468 1.578 4.263 3.687 4.263h9.782c.616 0 1.135-.46 1.257-1.064.165-.812-.431-1.603-1.259-1.603h-9.78c-.377 0-.695-.155-.888-.361a.714.714 0 0 1-.193-.67c1.16-5.356 6.231-9.479 12.414-9.479 1.915 0 3.721.395 5.337 1.098.47.204 1.017.147 1.427-.162z" clip-rule="evenodd"></path>
  <path fill="#2B3151" fill-rule="evenodd" d="M41.891 29.334c-6.627 0-12 5.372-12 12 0 6.627 5.373 12 12 12s12-5.373 12-12c0-6.628-5.373-12-12-12Zm-14.667 12c0-8.1 6.567-14.667 14.667-14.667s14.667 6.566 14.667 14.667C56.558 49.434 49.99 56 41.89 56s-14.667-6.566-14.667-14.666Z" clip-rule="evenodd"></path>
  <path fill="#445CDA" fill-rule="evenodd" d="M35.294 42.456c0-.736.597-1.333 1.334-1.333h2.807a1.333 1.333 0 0 1 0 2.667h-2.807a1.333 1.333 0 0 1-1.334-1.334zm0-8.42c0-.737.597-1.334 1.334-1.334h10.526a1.333 1.333 0 0 1 0 2.667H36.628a1.333 1.333 0 0 1-1.334-1.334zm0 4.21c0-.736.597-1.333 1.334-1.333h10.526a1.333 1.333 0 0 1 0 2.666H36.628a1.333 1.333 0 0 1-1.334-1.333z" clip-rule="evenodd"></path>
  <path fill="#445CDA" fill-rule="evenodd" d="M35.685 41.514c.52-.521 1.365-.521 1.886 0l7.443 7.443a1.333 1.333 0 0 1-1.886 1.886l-7.443-7.444a1.333 1.333 0 0 1 0-1.885Z" clip-rule="evenodd"></path>
  <path fill="#445CDA" fill-rule="evenodd" d="M42.312 38.246c0-1.49-1.343-2.877-3.228-2.877v-2.667c3.153 0 5.895 2.384 5.895 5.544 0 3.16-2.742 5.544-5.895 5.544v-2.667c1.885 0 3.228-1.386 3.228-2.877Z" clip-rule="evenodd"></path>
</svg>
